<svg width="70" height="47" viewBox="0 0 70 47" fill="none" xmlns="http://www.w3.org/2000/svg">
<mask id="path-1-inside-1_2_4979" fill="white">
<rect width="42" height="41" rx="2"/>
</mask>
<rect width="42" height="41" rx="2" stroke="#D1B06B" stroke-width="6" mask="url(#path-1-inside-1_2_4979)"/>
<mask id="path-2-inside-2_2_4979" fill="white">
<path d="M39.0166 10.3657C39.0166 9.81344 39.4643 9.36572 40.0166 9.36572H57.5005C64.1279 9.36572 69.5005 14.7383 69.5005 21.3657V39.9786C69.5005 40.5309 69.0528 40.9786 68.5005 40.9786H40.0166C39.4643 40.9786 39.0166 40.5309 39.0166 39.9786V10.3657Z"/>
</mask>
<path d="M39.0166 10.3657C39.0166 9.81344 39.4643 9.36572 40.0166 9.36572H57.5005C64.1279 9.36572 69.5005 14.7383 69.5005 21.3657V39.9786C69.5005 40.5309 69.0528 40.9786 68.5005 40.9786H40.0166C39.4643 40.9786 39.0166 40.5309 39.0166 39.9786V10.3657Z" stroke="#D1B06B" stroke-width="6" mask="url(#path-2-inside-2_2_4979)"/>
<mask id="path-3-inside-3_2_4979" fill="white">
<path d="M51.4355 9.36572H57.5001C64.1275 9.36572 69.5001 14.7383 69.5001 21.3657V24.1722C69.5001 24.7245 69.0524 25.1722 68.5001 25.1722H54.4355C52.7787 25.1722 51.4355 23.829 51.4355 22.1722V9.36572Z"/>
</mask>
<path d="M51.4355 9.36572H57.5001C64.1275 9.36572 69.5001 14.7383 69.5001 21.3657V24.1722C69.5001 24.7245 69.0524 25.1722 68.5001 25.1722H54.4355C52.7787 25.1722 51.4355 23.829 51.4355 22.1722V9.36572Z" stroke="#D1B06B" stroke-width="6" mask="url(#path-3-inside-3_2_4979)"/>
<circle cx="16.352" cy="39.2221" r="6.27778" fill="#1F2732" stroke="#D1B06B" stroke-width="3"/>
<circle cx="55.2407" cy="39.2221" r="6.27778" fill="#1F2732" stroke="#D1B06B" stroke-width="3"/>
<line x1="39.4814" y1="23.8706" x2="15.2592" y2="23.8706" stroke="#D1B06B" stroke-width="3" stroke-linecap="round"/>
</svg>
