<svg width="59" height="67" viewBox="0 0 59 67" fill="none" xmlns="http://www.w3.org/2000/svg">
<path d="M7.5 23.5C7.5 11.3497 17.3497 1.5 29.5 1.5C41.6503 1.5 51.5 11.3497 51.5 23.5V56.5H7.5V23.5Z" stroke="#D1B06B" stroke-width="3"/>
<path d="M2.23223 57.2322C1.76063 57.7038 1.60896 58.2642 1.54999 58.7029C1.49965 59.0773 1.49982 59.5209 1.49998 59.9311C1.49999 59.9542 1.5 59.9772 1.5 60V62C1.5 62.0228 1.49999 62.0458 1.49998 62.0689C1.49982 62.4791 1.49965 62.9227 1.54999 63.2971C1.60896 63.7358 1.76063 64.2962 2.23223 64.7678C2.70383 65.2394 3.26421 65.391 3.70286 65.45C4.07729 65.5004 4.52088 65.5002 4.9311 65.5C4.95418 65.5 4.97715 65.5 5 65.5H54L54.0689 65.5C54.4791 65.5002 54.9227 65.5004 55.2971 65.45C55.7358 65.391 56.2962 65.2394 56.7678 64.7678C57.2394 64.2962 57.391 63.7358 57.45 63.2971C57.5004 62.9227 57.5002 62.4791 57.5 62.0689L57.5 62V60L57.5 59.9311C57.5002 59.5209 57.5004 59.0773 57.45 58.7029C57.391 58.2642 57.2394 57.7038 56.7678 57.2322C56.2962 56.7606 55.7358 56.609 55.2971 56.55C54.9227 56.4996 54.4791 56.4998 54.0689 56.5L54 56.5H5C4.97715 56.5 4.95418 56.5 4.93111 56.5C4.52088 56.4998 4.07729 56.4996 3.70286 56.55C3.26421 56.609 2.70383 56.7606 2.23223 57.2322Z" stroke="#D1B06B" stroke-width="3"/>
<path d="M19.635 30.951V29.336H22.644C23.2447 29.336 23.7093 29.183 24.038 28.877C24.378 28.5597 24.548 28.1233 24.548 27.568C24.548 27.0693 24.3837 26.65 24.055 26.31C23.7263 25.97 23.2617 25.8 22.661 25.8H19.635V24.1H22.746C23.494 24.1 24.1513 24.253 24.718 24.559C25.2847 24.8537 25.721 25.2617 26.027 25.783C26.3443 26.293 26.503 26.8767 26.503 27.534C26.503 28.2253 26.3443 28.826 26.027 29.336C25.721 29.846 25.2847 30.2427 24.718 30.526C24.1513 30.8093 23.494 30.951 22.746 30.951H19.635ZM18.292 36V24.1H20.247V36H18.292ZM24.82 36L20.655 30.832L22.474 30.169L27.285 36H24.82ZM28.7344 36V24.1H30.6894V36H28.7344ZM34.6096 31.512V29.812H37.5846C37.9926 29.812 38.3496 29.7327 38.6556 29.574C38.9729 29.404 39.2223 29.1717 39.4036 28.877C39.5849 28.571 39.6756 28.214 39.6756 27.806C39.6756 27.398 39.5849 27.0467 39.4036 26.752C39.2223 26.446 38.9729 26.2137 38.6556 26.055C38.3496 25.885 37.9926 25.8 37.5846 25.8H34.6096V24.1H37.6866C38.4346 24.1 39.1033 24.253 39.6926 24.559C40.2933 24.865 40.7636 25.2957 41.1036 25.851C41.4549 26.4063 41.6306 27.058 41.6306 27.806C41.6306 28.554 41.4549 29.2057 41.1036 29.761C40.7636 30.3163 40.2933 30.747 39.6926 31.053C39.1033 31.359 38.4346 31.512 37.6866 31.512H34.6096ZM33.2666 36V24.1H35.2216V36H33.2666Z" fill="#D1B06B"/>
<line x1="18.15" y1="40.85" x2="40.85" y2="40.85" stroke="#D1B06B" stroke-width="2.3" stroke-linecap="round"/>
<line x1="13.15" y1="46.85" x2="45.85" y2="46.85" stroke="#D1B06B" stroke-width="2.3" stroke-linecap="round"/>
</svg>
