<svg width="1400" height="79" viewBox="0 0 1400 79" fill="none" xmlns="http://www.w3.org/2000/svg">
<line x1="456.004" y1="35" x2="0.4758" y2="35" stroke="#D1B06B"/>
<line x1="456.004" y1="45" x2="0.4758" y2="45" stroke="#D1B06B"/>
<line x1="408.481" y1="17.5" x2="408.481" y2="61.5" stroke="#D1B06B"/>
<line x1="417.542" y1="17.5" x2="417.542" y2="61.5" stroke="#D1B06B"/>
<rect x="416.136" y="43.5" width="6.34266" height="7" transform="rotate(-180 416.136 43.5)" fill="#D1B06B"/>
<path d="M615.219 59.22C615.436 59.22 615.544 59.35 615.544 59.61C615.544 59.87 615.436 60 615.219 60C614.396 60 613.074 59.9567 611.254 59.87C609.434 59.7833 608.112 59.74 607.289 59.74C606.206 59.74 604.927 59.7833 603.454 59.87C601.981 59.9567 600.832 60 600.009 60C599.836 60 599.749 59.87 599.749 59.61C599.749 59.35 599.836 59.22 600.009 59.22C601.266 59.22 602.176 59.09 602.739 58.83C603.346 58.5267 603.649 58.05 603.649 57.4C603.649 56.75 603.281 55.645 602.544 54.085L597.604 44.075H581.874L578.754 51.095C578.191 52.395 577.909 53.565 577.909 54.605C577.909 56.1217 578.451 57.27 579.534 58.05C580.617 58.83 582.134 59.22 584.084 59.22C584.301 59.22 584.409 59.35 584.409 59.61C584.409 59.87 584.301 60 584.084 60C583.304 60 582.177 59.9567 580.704 59.87C579.057 59.7833 577.627 59.74 576.414 59.74C575.244 59.74 573.879 59.7833 572.319 59.87C570.932 59.9567 569.784 60 568.874 60C568.657 60 568.549 59.87 568.549 59.61C568.549 59.35 568.657 59.22 568.874 59.22C570.087 59.22 571.106 58.9817 571.929 58.505C572.752 58.0283 573.554 57.1833 574.334 55.97C575.114 54.7133 576.046 52.8717 577.129 50.445L591.104 18.985C591.191 18.855 591.386 18.79 591.689 18.79C591.992 18.79 592.166 18.855 592.209 18.985L608.134 51.095C609.651 54.215 610.907 56.36 611.904 57.53C612.944 58.6567 614.049 59.22 615.219 59.22ZM582.589 42.45H596.824L589.349 27.305L582.589 42.45ZM636.015 55.84C636.145 55.84 636.253 55.9267 636.34 56.1C636.47 56.2733 636.47 56.4033 636.34 56.49C634.737 58.0067 633.22 59.1117 631.79 59.805C630.36 60.455 628.843 60.78 627.24 60.78C625.377 60.78 623.795 60.3467 622.495 59.48C621.238 58.57 620.61 57.075 620.61 54.995V40.305C620.61 38.875 620.372 37.9217 619.895 37.445C619.462 36.9683 618.595 36.73 617.295 36.73C617.252 36.73 617.187 36.6867 617.1 36.6C617.057 36.47 617.035 36.34 617.035 36.21C617.035 36.08 617.057 35.9717 617.1 35.885C617.187 35.755 617.252 35.69 617.295 35.69C621.368 35.5167 623.925 33.7617 624.965 30.425C625.052 30.2517 625.225 30.165 625.485 30.165C625.788 30.165 625.94 30.2517 625.94 30.425V35.56C627.977 35.5167 630.858 35.3 634.585 34.91C634.672 34.91 634.758 35.0833 634.845 35.43C634.975 35.7333 635.04 36.08 635.04 36.47C635.04 36.86 634.953 37.25 634.78 37.64C634.65 38.03 634.498 38.2033 634.325 38.16C631.898 37.5967 629.103 37.25 625.94 37.12V52.85C625.94 54.54 626.352 55.7967 627.175 56.62C628.042 57.4 629.233 57.79 630.75 57.79C632.57 57.79 634.282 57.1617 635.885 55.905L636.015 55.84ZM657.914 55.84C658.044 55.84 658.153 55.9267 658.239 56.1C658.369 56.2733 658.369 56.4033 658.239 56.49C656.636 58.0067 655.119 59.1117 653.689 59.805C652.259 60.455 650.743 60.78 649.139 60.78C647.276 60.78 645.694 60.3467 644.394 59.48C643.138 58.57 642.509 57.075 642.509 54.995V40.305C642.509 38.875 642.271 37.9217 641.794 37.445C641.361 36.9683 640.494 36.73 639.194 36.73C639.151 36.73 639.086 36.6867 638.999 36.6C638.956 36.47 638.934 36.34 638.934 36.21C638.934 36.08 638.956 35.9717 638.999 35.885C639.086 35.755 639.151 35.69 639.194 35.69C643.268 35.5167 645.824 33.7617 646.864 30.425C646.951 30.2517 647.124 30.165 647.384 30.165C647.688 30.165 647.839 30.2517 647.839 30.425V35.56C649.876 35.5167 652.758 35.3 656.484 34.91C656.571 34.91 656.658 35.0833 656.744 35.43C656.874 35.7333 656.939 36.08 656.939 36.47C656.939 36.86 656.853 37.25 656.679 37.64C656.549 38.03 656.398 38.2033 656.224 38.16C653.798 37.5967 651.003 37.25 647.839 37.12V52.85C647.839 54.54 648.251 55.7967 649.074 56.62C649.941 57.4 651.133 57.79 652.649 57.79C654.469 57.79 656.181 57.1617 657.784 55.905L657.914 55.84ZM674.289 60.845C671.689 60.845 669.392 60.2383 667.399 59.025C665.405 57.7683 663.867 56.1 662.784 54.02C661.7 51.8967 661.159 49.6 661.159 47.13C661.159 44.3133 661.852 41.93 663.239 39.98C664.669 37.9867 666.467 36.5133 668.634 35.56C670.844 34.5633 673.097 34.065 675.394 34.065C678.037 34.065 680.334 34.6933 682.284 35.95C684.277 37.2067 685.794 38.875 686.834 40.955C687.874 42.9917 688.394 45.18 688.394 47.52C688.394 50.12 687.744 52.4383 686.444 54.475C685.187 56.5117 683.475 58.0933 681.309 59.22C679.142 60.3033 676.802 60.845 674.289 60.845ZM676.239 59.545C678.145 59.545 679.597 58.7 680.594 57.01C681.634 55.32 682.154 52.85 682.154 49.6C682.154 46.6967 681.742 44.1617 680.919 41.995C680.139 39.8283 679.055 38.1817 677.669 37.055C676.325 35.9283 674.852 35.365 673.249 35.365C671.299 35.365 669.825 36.1667 668.829 37.77C667.832 39.3733 667.334 41.735 667.334 44.855C667.334 47.6717 667.702 50.2067 668.439 52.46C669.219 54.67 670.28 56.4033 671.624 57.66C673.01 58.9167 674.549 59.545 676.239 59.545ZM709.54 34.26C710.537 34.26 711.49 34.585 712.4 35.235C713.31 35.885 713.765 36.665 713.765 37.575C713.765 38.3983 713.505 39.07 712.985 39.59C712.508 40.11 711.837 40.37 710.97 40.37C710.407 40.37 709.93 40.2617 709.54 40.045C709.193 39.785 708.825 39.4383 708.435 39.005C708.045 38.615 707.698 38.3333 707.395 38.16C707.092 37.9433 706.723 37.835 706.29 37.835C705.813 37.835 705.293 38.03 704.73 38.42C704.21 38.7667 703.387 39.525 702.26 40.695V54.735C702.26 55.9483 702.433 56.88 702.78 57.53C703.127 58.1367 703.712 58.57 704.535 58.83C705.358 59.09 706.572 59.22 708.175 59.22C708.348 59.22 708.435 59.35 708.435 59.61C708.435 59.87 708.348 60 708.175 60C706.745 60 705.597 59.9783 704.73 59.935L699.595 59.87L695.825 59.935C695.218 59.9783 694.373 60 693.29 60C693.16 60 693.095 59.87 693.095 59.61C693.095 59.35 693.16 59.22 693.29 59.22C694.763 59.22 695.738 58.9167 696.215 58.31C696.692 57.7033 696.93 56.5117 696.93 54.735V42.32C696.93 40.9333 696.757 39.915 696.41 39.265C696.107 38.615 695.587 38.29 694.85 38.29C694.2 38.29 693.117 38.615 691.6 39.265H691.535C691.362 39.265 691.232 39.1567 691.145 38.94C691.058 38.7233 691.08 38.5933 691.21 38.55L699.725 34.39C699.985 34.3033 700.137 34.26 700.18 34.26C700.613 34.26 701.047 34.7367 701.48 35.69C701.913 36.6 702.173 37.8133 702.26 39.33C703.95 37.4233 705.358 36.1017 706.485 35.365C707.612 34.6283 708.63 34.26 709.54 34.26ZM747.697 59.22C747.827 59.22 747.892 59.35 747.892 59.61C747.892 59.87 747.827 60 747.697 60C746.613 60 745.768 59.9783 745.162 59.935L741.392 59.87L737.687 59.935C737.037 59.9783 736.17 60 735.087 60C734.957 60 734.892 59.87 734.892 59.61C734.892 59.35 734.957 59.22 735.087 59.22C736.56 59.22 737.535 58.9167 738.012 58.31C738.488 57.7033 738.727 56.5117 738.727 54.735V44.985C738.727 42.5583 738.272 40.7817 737.362 39.655C736.495 38.485 735.108 37.9 733.202 37.9C732.075 37.9 730.927 38.16 729.757 38.68C728.587 39.2 727.525 39.8933 726.572 40.76V54.735C726.572 56.5117 726.81 57.7033 727.287 58.31C727.763 58.9167 728.738 59.22 730.212 59.22C730.342 59.22 730.407 59.35 730.407 59.61C730.407 59.87 730.342 60 730.212 60C729.128 60 728.283 59.9783 727.677 59.935L723.907 59.87L720.137 59.935C719.53 59.9783 718.685 60 717.602 60C717.472 60 717.407 59.87 717.407 59.61C717.407 59.35 717.472 59.22 717.602 59.22C719.075 59.22 720.05 58.9167 720.527 58.31C721.003 57.7033 721.242 56.5117 721.242 54.735V42.32C721.242 40.9333 721.068 39.915 720.722 39.265C720.418 38.615 719.898 38.29 719.162 38.29C718.512 38.29 717.428 38.615 715.912 39.265H715.847C715.673 39.265 715.543 39.1567 715.457 38.94C715.37 38.7233 715.392 38.5933 715.522 38.55L724.037 34.39C724.297 34.3033 724.448 34.26 724.492 34.26C724.925 34.26 725.358 34.7583 725.792 35.755C726.268 36.7083 726.528 37.965 726.572 39.525C729.605 35.9283 732.898 34.13 736.452 34.13C738.835 34.13 740.698 34.8667 742.042 36.34C743.385 37.77 744.057 39.72 744.057 42.19V54.735C744.057 56.5117 744.295 57.7033 744.772 58.31C745.248 58.9167 746.223 59.22 747.697 59.22ZM773.595 55.905C773.682 55.905 773.768 55.9917 773.855 56.165C773.985 56.3383 774.007 56.4683 773.92 56.555C772.317 58.0283 770.713 59.1117 769.11 59.805C767.507 60.455 765.773 60.78 763.91 60.78C761.267 60.78 758.97 60.195 757.02 59.025C755.113 57.855 753.64 56.3167 752.6 54.41C751.603 52.5033 751.105 50.445 751.105 48.235C751.105 45.6783 751.733 43.3383 752.99 41.215C754.247 39.0917 755.958 37.4233 758.125 36.21C760.335 34.9533 762.783 34.325 765.47 34.325C768.07 34.325 770.085 34.9533 771.515 36.21C772.945 37.4667 773.66 39.33 773.66 41.8C773.66 43.0567 773.4 43.685 772.88 43.685L757.02 43.75C756.977 44.14 756.955 44.725 756.955 45.505C756.955 49.3183 757.822 52.3517 759.555 54.605C761.332 56.815 763.845 57.92 767.095 57.92C768.308 57.92 769.327 57.79 770.15 57.53C770.973 57.2267 772.078 56.7067 773.465 55.97L773.595 55.905ZM763.13 35.625C761.527 35.625 760.205 36.2533 759.165 37.51C758.168 38.7233 757.497 40.4133 757.15 42.58L767.55 42.385C767.463 37.8783 765.99 35.625 763.13 35.625ZM804.408 34.91C804.494 34.91 804.538 35.04 804.538 35.3C804.538 35.56 804.494 35.69 804.408 35.69C803.108 35.69 801.981 36.21 801.028 37.25C800.118 38.29 799.273 39.8717 798.493 41.995L791.018 61.82C789.458 65.98 787.963 69.2517 786.533 71.635C785.103 74.0183 783.651 75.7083 782.178 76.705C780.704 77.745 779.079 78.265 777.303 78.265C776.089 78.265 775.157 78.005 774.507 77.485C773.814 77.0083 773.467 76.2717 773.467 75.275C773.467 74.4083 773.749 73.7367 774.312 73.26C774.832 72.8267 775.482 72.61 776.263 72.61C776.783 72.61 777.216 72.675 777.563 72.805C777.953 72.9783 778.343 73.195 778.733 73.455C779.166 73.715 779.534 73.91 779.838 74.04C780.184 74.17 780.596 74.235 781.073 74.235C782.069 74.235 782.979 73.8233 783.803 73C784.669 72.22 785.558 70.8983 786.468 69.035C787.421 67.1717 788.548 64.5283 789.848 61.105L779.578 40.305C778.624 38.4417 777.866 37.2067 777.303 36.6C776.783 35.9933 776.133 35.69 775.352 35.69C775.222 35.69 775.157 35.56 775.157 35.3C775.157 35.04 775.222 34.91 775.352 34.91C776.479 34.91 777.346 34.9317 777.953 34.975L780.488 35.04L784.908 34.975C785.558 34.9317 786.446 34.91 787.573 34.91C787.703 34.91 787.768 35.04 787.768 35.3C787.768 35.56 787.703 35.69 787.573 35.69C786.403 35.69 785.536 35.7983 784.973 36.015C784.453 36.1883 784.193 36.535 784.193 37.055C784.193 37.445 784.301 37.835 784.517 38.225L792.448 54.605L796.803 41.995C797.193 40.8683 797.388 39.915 797.388 39.135C797.388 36.8383 795.936 35.69 793.033 35.69C792.946 35.69 792.903 35.56 792.903 35.3C792.903 35.04 792.946 34.91 793.033 34.91C794.203 34.91 795.091 34.9317 795.698 34.975L799.598 35.04L802.133 34.975C802.609 34.9317 803.368 34.91 804.408 34.91ZM811.147 38.29C811.147 39.6333 811.602 40.76 812.512 41.67C813.466 42.58 814.831 43.5333 816.607 44.53C818.167 45.3967 819.359 46.1117 820.182 46.675C821.049 47.2383 821.786 47.9967 822.392 48.95C823.042 49.9033 823.367 51.0517 823.367 52.395C823.367 53.8683 822.999 55.2333 822.262 56.49C821.526 57.7467 820.421 58.765 818.947 59.545C817.517 60.325 815.806 60.715 813.812 60.715C811.429 60.715 809.241 60.1083 807.247 58.895C806.987 58.635 806.857 58.375 806.857 58.115L806.727 52.135C806.727 52.005 806.836 51.94 807.052 51.94C807.312 51.8967 807.464 51.9183 807.507 52.005C808.244 54.1717 809.349 55.9483 810.822 57.335C812.339 58.7217 813.942 59.415 815.632 59.415C816.716 59.415 817.561 59.1333 818.167 58.57C818.774 58.0067 819.077 57.1617 819.077 56.035C819.077 54.3883 818.601 53.0883 817.647 52.135C816.694 51.1383 815.307 50.1633 813.487 49.21C812.014 48.43 810.866 47.78 810.042 47.26C809.219 46.6967 808.504 45.96 807.897 45.05C807.334 44.0967 807.052 42.9267 807.052 41.54C807.052 39.07 807.941 37.2283 809.717 36.015C811.537 34.8017 813.726 34.195 816.282 34.195C817.972 34.195 819.706 34.52 821.482 35.17C821.872 35.3433 822.067 35.5817 822.067 35.885C822.067 36.8817 822.046 37.6617 822.002 38.225L821.937 41.345C821.937 41.475 821.807 41.54 821.547 41.54C821.287 41.54 821.157 41.475 821.157 41.345C821.157 40.4783 820.811 39.59 820.117 38.68C819.424 37.7267 818.536 36.9467 817.452 36.34C816.369 35.7333 815.264 35.43 814.137 35.43C812.144 35.43 811.147 36.3833 811.147 38.29ZM846.567 55.84C846.697 55.84 846.805 55.9267 846.892 56.1C847.022 56.2733 847.022 56.4033 846.892 56.49C845.288 58.0067 843.772 59.1117 842.342 59.805C840.912 60.455 839.395 60.78 837.792 60.78C835.928 60.78 834.347 60.3467 833.047 59.48C831.79 58.57 831.162 57.075 831.162 54.995V40.305C831.162 38.875 830.923 37.9217 830.447 37.445C830.013 36.9683 829.147 36.73 827.847 36.73C827.803 36.73 827.738 36.6867 827.652 36.6C827.608 36.47 827.587 36.34 827.587 36.21C827.587 36.08 827.608 35.9717 827.652 35.885C827.738 35.755 827.803 35.69 827.847 35.69C831.92 35.5167 834.477 33.7617 835.517 30.425C835.603 30.2517 835.777 30.165 836.037 30.165C836.34 30.165 836.492 30.2517 836.492 30.425V35.56C838.528 35.5167 841.41 35.3 845.137 34.91C845.223 34.91 845.31 35.0833 845.397 35.43C845.527 35.7333 845.592 36.08 845.592 36.47C845.592 36.86 845.505 37.25 845.332 37.64C845.202 38.03 845.05 38.2033 844.877 38.16C842.45 37.5967 839.655 37.25 836.492 37.12V52.85C836.492 54.54 836.903 55.7967 837.727 56.62C838.593 57.4 839.785 57.79 841.302 57.79C843.122 57.79 844.833 57.1617 846.437 55.905L846.567 55.84ZM872.301 55.905C872.388 55.905 872.474 55.9917 872.561 56.165C872.691 56.3383 872.713 56.4683 872.626 56.555C871.023 58.0283 869.419 59.1117 867.816 59.805C866.213 60.455 864.479 60.78 862.616 60.78C859.973 60.78 857.676 60.195 855.726 59.025C853.819 57.855 852.346 56.3167 851.306 54.41C850.309 52.5033 849.811 50.445 849.811 48.235C849.811 45.6783 850.439 43.3383 851.696 41.215C852.953 39.0917 854.664 37.4233 856.831 36.21C859.041 34.9533 861.489 34.325 864.176 34.325C866.776 34.325 868.791 34.9533 870.221 36.21C871.651 37.4667 872.366 39.33 872.366 41.8C872.366 43.0567 872.106 43.685 871.586 43.685L855.726 43.75C855.683 44.14 855.661 44.725 855.661 45.505C855.661 49.3183 856.528 52.3517 858.261 54.605C860.038 56.815 862.551 57.92 865.801 57.92C867.014 57.92 868.033 57.79 868.856 57.53C869.679 57.2267 870.784 56.7067 872.171 55.97L872.301 55.905ZM861.836 35.625C860.233 35.625 858.911 36.2533 857.871 37.51C856.874 38.7233 856.203 40.4133 855.856 42.58L866.256 42.385C866.169 37.8783 864.696 35.625 861.836 35.625ZM893.559 34.26C894.555 34.26 895.509 34.585 896.419 35.235C897.329 35.885 897.784 36.665 897.784 37.575C897.784 38.3983 897.524 39.07 897.004 39.59C896.527 40.11 895.855 40.37 894.989 40.37C894.425 40.37 893.949 40.2617 893.559 40.045C893.212 39.785 892.844 39.4383 892.454 39.005C892.064 38.615 891.717 38.3333 891.414 38.16C891.11 37.9433 890.742 37.835 890.309 37.835C889.832 37.835 889.312 38.03 888.749 38.42C888.229 38.7667 887.405 39.525 886.279 40.695V54.735C886.279 55.9483 886.452 56.88 886.799 57.53C887.145 58.1367 887.73 58.57 888.554 58.83C889.377 59.09 890.59 59.22 892.194 59.22C892.367 59.22 892.454 59.35 892.454 59.61C892.454 59.87 892.367 60 892.194 60C890.764 60 889.615 59.9783 888.749 59.935L883.614 59.87L879.844 59.935C879.237 59.9783 878.392 60 877.309 60C877.179 60 877.114 59.87 877.114 59.61C877.114 59.35 877.179 59.22 877.309 59.22C878.782 59.22 879.757 58.9167 880.234 58.31C880.71 57.7033 880.949 56.5117 880.949 54.735V42.32C880.949 40.9333 880.775 39.915 880.429 39.265C880.125 38.615 879.605 38.29 878.869 38.29C878.219 38.29 877.135 38.615 875.619 39.265H875.554C875.38 39.265 875.25 39.1567 875.164 38.94C875.077 38.7233 875.099 38.5933 875.229 38.55L883.744 34.39C884.004 34.3033 884.155 34.26 884.199 34.26C884.632 34.26 885.065 34.7367 885.499 35.69C885.932 36.6 886.192 37.8133 886.279 39.33C887.969 37.4233 889.377 36.1017 890.504 35.365C891.63 34.6283 892.649 34.26 893.559 34.26Z" fill="white"/>
<path d="M557.444 23.8233C557.444 19.6881 554.013 16.3359 549.78 16.3359H508.667C504.435 16.3359 501.004 19.6881 501.004 23.8233" stroke="url(#paint0_angular_2_872)" stroke-width="3.5" stroke-miterlimit="10"/>
<path d="M503.004 61.6953C503.004 65.6965 506.256 68.9407 510.267 68.9407H549.233C553.244 68.9407 556.497 65.6965 556.497 61.6953" stroke="url(#paint1_angular_2_872)" stroke-width="3.5" stroke-miterlimit="10"/>
<path d="M517.582 27H514.004V57.7272H517.582V27Z" fill="url(#paint2_angular_2_872)"/>
<path d="M524.235 27H520.657V57.7272H524.235V27Z" fill="url(#paint3_angular_2_872)"/>
<path d="M531.014 27H527.436V57.7272H531.014V27Z" fill="url(#paint4_angular_2_872)"/>
<path d="M537.605 27H534.026V57.7272H537.605V27Z" fill="url(#paint5_angular_2_872)"/>
<path d="M544.353 27H540.774V57.7272H544.353V27Z" fill="url(#paint6_angular_2_872)"/>
<path d="M517.582 73.5918H514.004V79H517.582V73.5918Z" fill="url(#paint7_angular_2_872)"/>
<path d="M524.235 73.5918H520.657V79H524.235V73.5918Z" fill="url(#paint8_angular_2_872)"/>
<path d="M531.015 73.5918H527.437V79H531.015V73.5918Z" fill="url(#paint9_angular_2_872)"/>
<path d="M537.606 73.5918H534.027V79H537.606V73.5918Z" fill="url(#paint10_angular_2_872)"/>
<path d="M544.353 73.5918H540.774V79H544.353V73.5918Z" fill="url(#paint11_angular_2_872)"/>
<path d="M524.234 1H520.655V6.40822H524.234V1Z" fill="url(#paint12_angular_2_872)"/>
<path d="M531.014 1H527.436V6.40822H531.014V1Z" fill="url(#paint13_angular_2_872)"/>
<path d="M537.604 1H534.025V6.40822H537.604V1Z" fill="url(#paint14_angular_2_872)"/>
<path d="M547.49 24.5694V21L512.004 21V24.5694L547.49 24.5694Z" fill="url(#paint15_angular_2_872)"/>
<path d="M547.004 64.3702V60.8008L511.517 60.8008V64.3702H547.004Z" fill="url(#paint16_angular_2_872)"/>
<path d="M547.004 11.8428V8.27344L511.517 8.27344V11.8428L547.004 11.8428Z" fill="url(#paint17_angular_2_872)"/>
<line x1="944.004" y1="44" x2="1399.53" y2="44" stroke="#D1B06B"/>
<line x1="944.004" y1="34" x2="1399.53" y2="34" stroke="#D1B06B"/>
<line x1="991.526" y1="61.5" x2="991.526" y2="17.5" stroke="#D1B06B"/>
<line x1="982.466" y1="61.5" x2="982.466" y2="17.5" stroke="#D1B06B"/>
<rect x="983.872" y="35.5" width="6.34266" height="7" fill="#D1B06B"/>
<defs>
<radialGradient id="paint0_angular_2_872" cx="0" cy="0" r="1" gradientUnits="userSpaceOnUse" gradientTransform="translate(529.224 20.0796) rotate(90) scale(3.7437 28.22)">
<stop stop-color="#DBBC80"/>
<stop offset="1" stop-color="#AB8219"/>
</radialGradient>
<radialGradient id="paint1_angular_2_872" cx="0" cy="0" r="1" gradientUnits="userSpaceOnUse" gradientTransform="translate(529.75 65.318) rotate(90) scale(3.62271 26.7464)">
<stop stop-color="#DBBC80"/>
<stop offset="1" stop-color="#AB8219"/>
</radialGradient>
<radialGradient id="paint2_angular_2_872" cx="0" cy="0" r="1" gradientUnits="userSpaceOnUse" gradientTransform="translate(515.793 42.3636) rotate(90) scale(15.3636 1.78911)">
<stop stop-color="#DBBC80"/>
<stop offset="1" stop-color="#AB8219"/>
</radialGradient>
<radialGradient id="paint3_angular_2_872" cx="0" cy="0" r="1" gradientUnits="userSpaceOnUse" gradientTransform="translate(522.446 42.3636) rotate(90) scale(15.3636 1.78911)">
<stop stop-color="#DBBC80"/>
<stop offset="1" stop-color="#AB8219"/>
</radialGradient>
<radialGradient id="paint4_angular_2_872" cx="0" cy="0" r="1" gradientUnits="userSpaceOnUse" gradientTransform="translate(529.225 42.3636) rotate(90) scale(15.3636 1.78911)">
<stop stop-color="#DBBC80"/>
<stop offset="1" stop-color="#AB8219"/>
</radialGradient>
<radialGradient id="paint5_angular_2_872" cx="0" cy="0" r="1" gradientUnits="userSpaceOnUse" gradientTransform="translate(535.815 42.3636) rotate(90) scale(15.3636 1.78911)">
<stop stop-color="#DBBC80"/>
<stop offset="1" stop-color="#AB8219"/>
</radialGradient>
<radialGradient id="paint6_angular_2_872" cx="0" cy="0" r="1" gradientUnits="userSpaceOnUse" gradientTransform="translate(542.564 42.3636) rotate(90) scale(15.3636 1.78911)">
<stop stop-color="#DBBC80"/>
<stop offset="1" stop-color="#AB8219"/>
</radialGradient>
<radialGradient id="paint7_angular_2_872" cx="0" cy="0" r="1" gradientUnits="userSpaceOnUse" gradientTransform="translate(515.793 76.2959) rotate(90) scale(2.70411 1.78911)">
<stop stop-color="#DBBC80"/>
<stop offset="1" stop-color="#AB8219"/>
</radialGradient>
<radialGradient id="paint8_angular_2_872" cx="0" cy="0" r="1" gradientUnits="userSpaceOnUse" gradientTransform="translate(522.446 76.2959) rotate(90) scale(2.70411 1.78911)">
<stop stop-color="#DBBC80"/>
<stop offset="1" stop-color="#AB8219"/>
</radialGradient>
<radialGradient id="paint9_angular_2_872" cx="0" cy="0" r="1" gradientUnits="userSpaceOnUse" gradientTransform="translate(529.226 76.2959) rotate(90) scale(2.70411 1.78911)">
<stop stop-color="#DBBC80"/>
<stop offset="1" stop-color="#AB8219"/>
</radialGradient>
<radialGradient id="paint10_angular_2_872" cx="0" cy="0" r="1" gradientUnits="userSpaceOnUse" gradientTransform="translate(535.816 76.2959) rotate(90) scale(2.70411 1.78911)">
<stop stop-color="#DBBC80"/>
<stop offset="1" stop-color="#AB8219"/>
</radialGradient>
<radialGradient id="paint11_angular_2_872" cx="0" cy="0" r="1" gradientUnits="userSpaceOnUse" gradientTransform="translate(542.564 76.2959) rotate(90) scale(2.70411 1.78911)">
<stop stop-color="#DBBC80"/>
<stop offset="1" stop-color="#AB8219"/>
</radialGradient>
<radialGradient id="paint12_angular_2_872" cx="0" cy="0" r="1" gradientUnits="userSpaceOnUse" gradientTransform="translate(522.444 3.70411) rotate(90) scale(2.70411 1.78911)">
<stop stop-color="#DBBC80"/>
<stop offset="1" stop-color="#AB8219"/>
</radialGradient>
<radialGradient id="paint13_angular_2_872" cx="0" cy="0" r="1" gradientUnits="userSpaceOnUse" gradientTransform="translate(529.225 3.70411) rotate(90) scale(2.70411 1.78911)">
<stop stop-color="#DBBC80"/>
<stop offset="1" stop-color="#AB8219"/>
</radialGradient>
<radialGradient id="paint14_angular_2_872" cx="0" cy="0" r="1" gradientUnits="userSpaceOnUse" gradientTransform="translate(535.815 3.70411) rotate(90) scale(2.70411 1.78911)">
<stop stop-color="#DBBC80"/>
<stop offset="1" stop-color="#AB8219"/>
</radialGradient>
<radialGradient id="paint15_angular_2_872" cx="0" cy="0" r="1" gradientUnits="userSpaceOnUse" gradientTransform="translate(529.747 22.7847) rotate(-180) scale(17.7432 1.78468)">
<stop stop-color="#DBBC80"/>
<stop offset="1" stop-color="#AB8219"/>
</radialGradient>
<radialGradient id="paint16_angular_2_872" cx="0" cy="0" r="1" gradientUnits="userSpaceOnUse" gradientTransform="translate(529.261 62.5855) rotate(-180) scale(17.7432 1.78469)">
<stop stop-color="#DBBC80"/>
<stop offset="1" stop-color="#AB8219"/>
</radialGradient>
<radialGradient id="paint17_angular_2_872" cx="0" cy="0" r="1" gradientUnits="userSpaceOnUse" gradientTransform="translate(529.261 10.0581) rotate(-180) scale(17.7432 1.78468)">
<stop stop-color="#DBBC80"/>
<stop offset="1" stop-color="#AB8219"/>
</radialGradient>
</defs>
</svg>
