<svg width="20" height="20" viewBox="0 0 20 20" fill="none" xmlns="http://www.w3.org/2000/svg">
<path d="M13.8655 2.14564C14.9461 2.14875 15.9816 2.56352 16.7458 3.29938C17.5099 4.03523 17.9407 5.03236 17.9439 6.07301V13.9269C17.9407 14.9675 17.5099 15.9647 16.7458 16.7005C15.9816 17.4364 14.9461 17.8512 13.8655 17.8543H5.70952C4.62885 17.8512 3.59336 17.4364 2.82921 16.7005C2.06506 15.9647 1.63433 14.9675 1.6311 13.9269V6.07301C1.63433 5.03236 2.06506 4.03523 2.82921 3.29938C3.59336 2.56352 4.62885 2.14875 5.70952 2.14564H13.8655ZM13.8655 0.574951H5.70952C2.56922 0.574951 0 3.04901 0 6.07301V13.9269C0 16.9509 2.56922 19.425 5.70952 19.425H13.8655C17.0058 19.425 19.575 16.9509 19.575 13.9269V6.07301C19.575 3.04901 17.0058 0.574951 13.8655 0.574951Z" fill="white"/>
<path d="M15.0887 6.07183C14.8467 6.07183 14.6102 6.00273 14.409 5.87328C14.2078 5.74382 14.051 5.55982 13.9584 5.34455C13.8658 5.12928 13.8416 4.89239 13.8888 4.66386C13.936 4.43533 14.0525 4.22541 14.2236 4.06064C14.3947 3.89588 14.6127 3.78367 14.85 3.73821C15.0874 3.69276 15.3334 3.71609 15.5569 3.80526C15.7805 3.89443 15.9715 4.04543 16.106 4.23917C16.2404 4.43291 16.3122 4.66069 16.3122 4.8937C16.3125 5.04851 16.2811 5.20186 16.2197 5.34494C16.1584 5.48803 16.0683 5.61804 15.9546 5.7275C15.8409 5.83697 15.7059 5.92374 15.5573 5.98283C15.4087 6.04191 15.2495 6.07216 15.0887 6.07183ZM9.78731 6.85696C10.4326 6.85696 11.0634 7.04123 11.5999 7.38645C12.1365 7.73168 12.5547 8.22236 12.8016 8.79645C13.0485 9.37054 13.1131 10.0023 12.9873 10.6117C12.8614 11.2212 12.5506 11.781 12.0943 12.2204C11.6381 12.6598 11.0567 12.959 10.4238 13.0802C9.79092 13.2014 9.13492 13.1392 8.53875 12.9014C7.94257 12.6636 7.43302 12.2609 7.07452 11.7443C6.71601 11.2276 6.52466 10.6202 6.52466 9.99877C6.52559 9.16578 6.86962 8.36717 7.48129 7.77816C8.09295 7.18915 8.92228 6.85785 9.78731 6.85696ZM9.78731 5.28627C8.81941 5.28627 7.87326 5.56265 7.06848 6.08047C6.26371 6.59829 5.63647 7.33428 5.26607 8.19537C4.89568 9.05647 4.79876 10.004 4.98759 10.9181C5.17642 11.8323 5.6425 12.672 6.3269 13.331C7.01131 13.9901 7.88329 14.4389 8.83258 14.6207C9.78188 14.8026 10.7658 14.7092 11.6601 14.3526C12.5543 13.9959 13.3186 13.3919 13.8563 12.6169C14.394 11.8419 14.6811 10.9308 14.6811 9.99877C14.6811 8.74894 14.1655 7.55029 13.2477 6.66653C12.33 5.78276 11.0852 5.28627 9.78731 5.28627Z" fill="white"/>
</svg>
