<svg width="33" height="34" viewBox="0 0 33 34" fill="none" xmlns="http://www.w3.org/2000/svg">
<path d="M1.59373 33L5.02844 9H27.8524L31.2871 33H1.59373Z" stroke="white" stroke-width="2"/>
<mask id="path-2-inside-1_2_841" fill="white">
<path fill-rule="evenodd" clip-rule="evenodd" d="M16.4405 0C12.3862 0 9.09961 3.28664 9.09961 7.34092V10.0456H23.7814V7.34091C23.7814 3.28664 20.4948 0 16.4405 0Z"/>
</mask>
<path d="M9.09961 10.0456H7.09961V12.0456H9.09961V10.0456ZM23.7814 10.0456V12.0456H25.7814V10.0456H23.7814ZM11.0996 7.34092C11.0996 4.39121 13.4908 2 16.4405 2V-2C11.2817 -2 7.09961 2.18208 7.09961 7.34092H11.0996ZM11.0996 10.0456V7.34092H7.09961V10.0456H11.0996ZM9.09961 12.0456H23.7814V8.04561H9.09961V12.0456ZM21.7814 7.34091V10.0456H25.7814V7.34091H21.7814ZM16.4405 2C19.3902 2 21.7814 4.39121 21.7814 7.34091H25.7814C25.7814 2.18207 21.5994 -2 16.4405 -2V2Z" fill="white" mask="url(#path-2-inside-1_2_841)"/>
</svg>
