<svg width="73" height="73" viewBox="0 0 73 73" fill="none" xmlns="http://www.w3.org/2000/svg">
<circle cx="36.5" cy="36.5" r="36.5" fill="#1F2732"/>
<path d="M18 39C18 41.3869 18.7902 43.6761 20.1967 45.364C21.6032 47.0518 23.5109 48 25.5 48C27.4891 48 29.3968 47.0518 30.8033 45.364C32.2098 43.6761 33 41.3869 33 39L25.5 39L18 39Z" fill="#D1B06B"/>
<path d="M40 39C40 41.3869 40.7902 43.6761 42.1967 45.364C43.6032 47.0518 45.5109 48 47.5 48C49.4891 48 51.3968 47.0518 52.8033 45.364C54.2098 43.6761 55 41.3869 55 39L47.5 39L40 39Z" fill="#D1B06B"/>
<path d="M19 39L24.6207 28.6233C24.9989 27.925 26.0011 27.925 26.3793 28.6233L32 39" stroke="#D1B06B" stroke-width="2" stroke-linecap="round"/>
<path d="M41 39L46.6207 28.6233C46.9989 27.925 48.0011 27.925 48.3793 28.6233L54 39" stroke="#D1B06B" stroke-width="2" stroke-linecap="round"/>
<line x1="24.5" y1="26.5" x2="48.5" y2="26.5" stroke="#D1B06B" stroke-width="3" stroke-linecap="round"/>
<line x1="36.5" y1="48.5" x2="36.5" y2="24.5" stroke="#D1B06B" stroke-width="3" stroke-linecap="round"/>
</svg>
