<svg width="73" height="73" viewBox="0 0 73 73" fill="none" xmlns="http://www.w3.org/2000/svg">
<circle cx="36.5" cy="36.5" r="36.5" fill="#1F2732"/>
<path d="M37 52C37.4632 51.9994 37.9155 51.8579 38.298 51.5939C43.9653 47.7037 46.4192 45.0365 47.7727 43.3689C50.6572 39.8142 52.0381 36.1647 51.9992 32.2126C51.9538 27.6838 48.3605 24 43.989 24C40.8104 24 38.6088 25.8105 37.3267 27.3184C37.286 27.3657 37.2359 27.4036 37.1795 27.4296C37.1232 27.4556 37.0619 27.4691 37 27.4691C36.9381 27.4691 36.8768 27.4556 36.8205 27.4296C36.7641 27.4036 36.7139 27.3657 36.6733 27.3184C35.3912 25.8091 33.1896 24 30.0109 24C25.6395 24 22.0462 27.6837 22.0008 32.2133C21.9619 36.1661 23.3442 39.8156 26.2273 43.3696C27.5808 45.0372 30.0347 47.7045 35.702 51.5946C36.0846 51.8584 36.5369 51.9996 37 52Z" fill="#D1B06B"/>
</svg>
