<svg width="73" height="73" viewBox="0 0 73 73" fill="none" xmlns="http://www.w3.org/2000/svg">
<circle cx="36.5" cy="36.5" r="36.5" fill="#1F2732"/>
<path fill-rule="evenodd" clip-rule="evenodd" d="M50.7776 22.4358L43.606 23.6413L29.7632 39.3284L28.3883 37.9535L26.3464 39.9954L27.8488 41.4978L23.9222 45.9476L27.2658 49.2912L31.7155 45.3645L33.0266 46.6756L35.0686 44.6337L33.885 43.4501L49.572 29.6073L50.7776 22.4358ZM22.4069 44.4327L28.8385 50.8642L26.7965 52.9061L20.365 46.4746L22.4069 44.4327Z" fill="#D1B06B"/>
<path fill-rule="evenodd" clip-rule="evenodd" d="M26.049 29.4462L24.8223 22.2959L31.9726 23.5227L36.7533 28.9355L31.7149 34.4504L26.049 29.4462ZM34.6189 37.0153L41.7292 43.2953L40.4232 44.6014L42.4651 46.6433L43.8978 45.2106L48.346 49.1394L51.6657 45.8196L47.737 41.3714L49.1047 40.0037L47.0628 37.9618L45.8217 39.2029L39.3327 31.8559L34.6189 37.0153ZM53.2931 44.1923L46.6536 50.8319L48.6955 52.8738L55.335 46.2342L53.2931 44.1923Z" fill="#D1B06B"/>
</svg>
