<svg width="216" height="62" viewBox="0 0 216 62" fill="none" xmlns="http://www.w3.org/2000/svg">
<circle cx="31.2207" cy="31" r="30" stroke="#CCAA60" stroke-width="2"/>
<path d="M77.4547 53L82.0527 46.73L82.8007 46.334C82.6247 46.6273 82.412 46.884 82.1627 47.104C81.9134 47.324 81.6054 47.4927 81.2387 47.61C80.8867 47.7273 80.454 47.786 79.9407 47.786C79.0607 47.786 78.2467 47.5733 77.4987 47.148C76.7654 46.7227 76.1787 46.136 75.7387 45.388C75.2987 44.6253 75.0787 43.7673 75.0787 42.814C75.0787 41.8313 75.3207 40.944 75.8047 40.152C76.2887 39.3453 76.934 38.7073 77.7407 38.238C78.5474 37.754 79.442 37.512 80.4247 37.512C81.422 37.512 82.324 37.7467 83.1307 38.216C83.9374 38.6853 84.5754 39.316 85.0447 40.108C85.514 40.8853 85.7487 41.7653 85.7487 42.748C85.7487 44.0973 85.2794 45.4393 84.3407 46.774L79.8527 53H77.4547ZM80.4247 46.158C81.0407 46.158 81.5907 46.0113 82.0747 45.718C82.5734 45.41 82.962 45.0067 83.2407 44.508C83.534 43.9947 83.6807 43.43 83.6807 42.814C83.6807 42.1687 83.534 41.5967 83.2407 41.098C82.962 40.5847 82.5734 40.1813 82.0747 39.888C81.5907 39.5947 81.0407 39.448 80.4247 39.448C79.8087 39.448 79.2514 39.5947 78.7527 39.888C78.2687 40.1813 77.88 40.5847 77.5867 41.098C77.2934 41.5967 77.1467 42.1687 77.1467 42.814C77.1467 43.4447 77.2934 44.0093 77.5867 44.508C77.88 45.0067 78.276 45.41 78.7747 45.718C79.2734 46.0113 79.8234 46.158 80.4247 46.158ZM90.2513 53V37.732H92.2973V53H90.2513ZM87.1273 39.58V37.732H92.0773V39.58H87.1273ZM97.8783 53V37.732H99.9243V53H97.8783ZM94.7543 39.58V37.732H99.7043V39.58H94.7543ZM103.151 48.336V46.466H110.389V48.336H103.151ZM115.074 53L119.672 46.73L120.42 46.334C120.244 46.6273 120.031 46.884 119.782 47.104C119.533 47.324 119.225 47.4927 118.858 47.61C118.506 47.7273 118.073 47.786 117.56 47.786C116.68 47.786 115.866 47.5733 115.118 47.148C114.385 46.7227 113.798 46.136 113.358 45.388C112.918 44.6253 112.698 43.7673 112.698 42.814C112.698 41.8313 112.94 40.944 113.424 40.152C113.908 39.3453 114.553 38.7073 115.36 38.238C116.167 37.754 117.061 37.512 118.044 37.512C119.041 37.512 119.943 37.7467 120.75 38.216C121.557 38.6853 122.195 39.316 122.664 40.108C123.133 40.8853 123.368 41.7653 123.368 42.748C123.368 44.0973 122.899 45.4393 121.96 46.774L117.472 53H115.074ZM118.044 46.158C118.66 46.158 119.21 46.0113 119.694 45.718C120.193 45.41 120.581 45.0067 120.86 44.508C121.153 43.9947 121.3 43.43 121.3 42.814C121.3 42.1687 121.153 41.5967 120.86 41.098C120.581 40.5847 120.193 40.1813 119.694 39.888C119.21 39.5947 118.66 39.448 118.044 39.448C117.428 39.448 116.871 39.5947 116.372 39.888C115.888 40.1813 115.499 40.5847 115.206 41.098C114.913 41.5967 114.766 42.1687 114.766 42.814C114.766 43.4447 114.913 44.0093 115.206 44.508C115.499 45.0067 115.895 45.41 116.394 45.718C116.893 46.0113 117.443 46.158 118.044 46.158ZM129.921 53.22C128.909 53.22 128.014 53.0293 127.237 52.648C126.474 52.2667 125.88 51.7387 125.455 51.064C125.03 50.3893 124.817 49.6267 124.817 48.776C124.817 48.0867 124.949 47.456 125.213 46.884C125.477 46.312 125.866 45.828 126.379 45.432C126.892 45.0213 127.494 44.728 128.183 44.552L128.249 45.146C127.662 44.9847 127.164 44.728 126.753 44.376C126.342 44.0093 126.027 43.584 125.807 43.1C125.602 42.6013 125.499 42.0733 125.499 41.516C125.499 40.724 125.69 40.0273 126.071 39.426C126.452 38.8247 126.973 38.3553 127.633 38.018C128.308 37.666 129.07 37.49 129.921 37.49C130.786 37.49 131.549 37.666 132.209 38.018C132.869 38.3553 133.39 38.8247 133.771 39.426C134.152 40.0273 134.343 40.724 134.343 41.516C134.343 42.0733 134.233 42.6013 134.013 43.1C133.808 43.584 133.5 44.0093 133.089 44.376C132.693 44.728 132.202 44.9847 131.615 45.146L131.659 44.552C132.363 44.728 132.964 45.0213 133.463 45.432C133.976 45.828 134.365 46.312 134.629 46.884C134.908 47.456 135.047 48.0867 135.047 48.776C135.047 49.6267 134.834 50.3893 134.409 51.064C133.984 51.7387 133.382 52.2667 132.605 52.648C131.842 53.0293 130.948 53.22 129.921 53.22ZM129.921 51.35C130.537 51.35 131.072 51.2327 131.527 50.998C131.996 50.7487 132.363 50.4113 132.627 49.986C132.906 49.5607 133.045 49.0693 133.045 48.512C133.045 47.9693 132.906 47.4853 132.627 47.06C132.363 46.6347 131.996 46.3047 131.527 46.07C131.072 45.8207 130.537 45.696 129.921 45.696C129.32 45.696 128.784 45.8207 128.315 46.07C127.846 46.3047 127.472 46.6347 127.193 47.06C126.929 47.4853 126.797 47.9693 126.797 48.512C126.797 49.0693 126.929 49.5607 127.193 49.986C127.472 50.4113 127.846 50.7487 128.315 50.998C128.784 51.2327 129.32 51.35 129.921 51.35ZM129.921 44.09C130.654 44.09 131.256 43.8627 131.725 43.408C132.194 42.9533 132.429 42.3667 132.429 41.648C132.429 40.944 132.194 40.372 131.725 39.932C131.256 39.4773 130.654 39.25 129.921 39.25C129.202 39.25 128.608 39.4773 128.139 39.932C127.67 40.372 127.435 40.944 127.435 41.648C127.435 42.3667 127.67 42.9533 128.139 43.408C128.608 43.8627 129.202 44.09 129.921 44.09ZM138.424 53L144.144 38.942L146.19 39.008L140.602 53H138.424ZM136.026 39.58V37.732H146.19V39.008L145.288 39.58H136.026ZM152.333 53.22C151.321 53.22 150.412 52.9853 149.605 52.516C148.813 52.0467 148.182 51.416 147.713 50.624C147.244 49.832 147.009 48.952 147.009 47.984C147.009 46.6347 147.478 45.2927 148.417 43.958L152.905 37.732H155.303L150.705 44.002L149.957 44.398C150.133 44.09 150.346 43.8333 150.595 43.628C150.844 43.408 151.152 43.2393 151.519 43.122C151.886 43.0047 152.318 42.946 152.817 42.946C153.712 42.946 154.518 43.1587 155.237 43.584C155.97 44.0093 156.557 44.596 156.997 45.344C157.452 46.0773 157.679 46.9353 157.679 47.918C157.679 48.886 157.437 49.7733 156.953 50.58C156.484 51.3867 155.838 52.032 155.017 52.516C154.21 52.9853 153.316 53.22 152.333 53.22ZM152.333 51.284C152.949 51.284 153.499 51.1373 153.983 50.844C154.482 50.536 154.87 50.1327 155.149 49.634C155.442 49.1207 155.589 48.5487 155.589 47.918C155.589 47.2873 155.442 46.7227 155.149 46.224C154.87 45.7107 154.482 45.3073 153.983 45.014C153.499 44.7207 152.949 44.574 152.333 44.574C151.717 44.574 151.16 44.7207 150.661 45.014C150.177 45.3073 149.788 45.7107 149.495 46.224C149.216 46.7227 149.077 47.2873 149.077 47.918C149.077 48.5487 149.216 49.1207 149.495 49.634C149.788 50.1473 150.177 50.5507 150.661 50.844C151.16 51.1373 151.717 51.284 152.333 51.284ZM164.003 53.22C162.962 53.22 162.03 53.0367 161.209 52.67C160.402 52.2887 159.72 51.7387 159.163 51.02L160.571 49.612C160.908 50.1253 161.37 50.536 161.957 50.844C162.558 51.1373 163.226 51.284 163.959 51.284C164.648 51.284 165.25 51.152 165.763 50.888C166.291 50.624 166.702 50.2573 166.995 49.788C167.303 49.304 167.457 48.732 167.457 48.072C167.457 47.3973 167.31 46.8253 167.017 46.356C166.724 45.8867 166.328 45.5347 165.829 45.3C165.345 45.0507 164.81 44.926 164.223 44.926C163.622 44.926 163.072 44.9993 162.573 45.146C162.089 45.2927 161.627 45.542 161.187 45.894L161.209 44.574C161.458 44.266 161.744 44.0167 162.067 43.826C162.39 43.6353 162.756 43.4887 163.167 43.386C163.578 43.2833 164.054 43.232 164.597 43.232C165.653 43.232 166.548 43.452 167.281 43.892C168.014 44.332 168.572 44.926 168.953 45.674C169.349 46.422 169.547 47.258 169.547 48.182C169.547 49.15 169.305 50.0153 168.821 50.778C168.352 51.5407 167.699 52.142 166.863 52.582C166.027 53.0073 165.074 53.22 164.003 53.22ZM161.187 45.894L160.065 44.772L160.747 37.732H162.639L161.869 44.97L161.187 45.894ZM161.165 39.58L160.747 37.732H168.777V39.58H161.165ZM171.175 47.742L176.741 37.732H179.073L173.397 47.742H171.175ZM171.175 49.018V47.742L172.055 47.17H182.879V49.018H171.175ZM178.633 53V42.902H180.679V53H178.633ZM189.032 53.22C188.034 53.22 187.125 53.0367 186.304 52.67C185.497 52.2887 184.815 51.7387 184.258 51.02L185.666 49.612C186.003 50.1253 186.465 50.536 187.052 50.844C187.638 51.1373 188.291 51.284 189.01 51.284C189.684 51.284 190.264 51.1593 190.748 50.91C191.246 50.646 191.635 50.2793 191.914 49.81C192.207 49.3407 192.354 48.798 192.354 48.182C192.354 47.5513 192.207 47.0087 191.914 46.554C191.635 46.0847 191.239 45.7253 190.726 45.476C190.212 45.2267 189.604 45.102 188.9 45.102C188.636 45.102 188.372 45.124 188.108 45.168C187.844 45.1973 187.587 45.2487 187.338 45.322L188.218 44.134C188.496 44.002 188.797 43.8993 189.12 43.826C189.442 43.7527 189.765 43.716 190.088 43.716C190.909 43.716 191.642 43.9067 192.288 44.288C192.948 44.6693 193.468 45.2047 193.85 45.894C194.246 46.5833 194.444 47.3827 194.444 48.292C194.444 49.26 194.209 50.118 193.74 50.866C193.285 51.5993 192.654 52.1787 191.848 52.604C191.041 53.0147 190.102 53.22 189.032 53.22ZM187.338 45.322V44.068L191.804 38.986L194.268 38.964L189.67 44.178L187.338 45.322ZM184.984 39.58V37.732H194.268V38.964L192.464 39.58H184.984ZM196.162 51.746L201.794 45.806C202.366 45.2193 202.813 44.7133 203.136 44.288C203.458 43.848 203.686 43.4447 203.818 43.078C203.964 42.7113 204.038 42.33 204.038 41.934C204.038 41.1567 203.788 40.548 203.29 40.108C202.791 39.668 202.146 39.448 201.354 39.448C200.576 39.448 199.894 39.6387 199.308 40.02C198.721 40.3867 198.2 40.9587 197.746 41.736L196.294 40.526C196.895 39.5287 197.621 38.7807 198.472 38.282C199.322 37.7687 200.305 37.512 201.42 37.512C202.358 37.512 203.172 37.6953 203.862 38.062C204.566 38.4287 205.108 38.942 205.49 39.602C205.871 40.262 206.062 41.032 206.062 41.912C206.062 42.5427 205.981 43.1073 205.82 43.606C205.673 44.1047 205.402 44.618 205.006 45.146C204.624 45.6593 204.089 46.2753 203.4 46.994L198.846 51.68L196.162 51.746ZM196.162 53V51.746L197.922 51.152H206.414V53H196.162ZM211.144 53V37.732H213.19V53H211.144ZM208.02 39.58V37.732H212.97V39.58H208.02Z" fill="white"/>
<path d="M81.3127 24.18C80.4007 24.18 79.5547 24.018 78.7747 23.694C78.0067 23.358 77.3347 22.896 76.7587 22.308C76.1827 21.708 75.7387 21.018 75.4267 20.238C75.1147 19.446 74.9587 18.6 74.9587 17.7C74.9587 16.8 75.1147 15.96 75.4267 15.18C75.7387 14.388 76.1827 13.698 76.7587 13.11C77.3347 12.522 78.0067 12.06 78.7747 11.724C79.5547 11.388 80.4007 11.22 81.3127 11.22C82.3327 11.22 83.2147 11.388 83.9587 11.724C84.7027 12.06 85.3627 12.516 85.9387 13.092L84.5347 14.496C84.1627 14.088 83.7067 13.77 83.1667 13.542C82.6387 13.314 82.0207 13.2 81.3127 13.2C80.6887 13.2 80.1187 13.308 79.6027 13.524C79.0867 13.74 78.6367 14.052 78.2527 14.46C77.8807 14.856 77.5927 15.33 77.3887 15.882C77.1847 16.434 77.0827 17.04 77.0827 17.7C77.0827 18.36 77.1847 18.966 77.3887 19.518C77.5927 20.07 77.8807 20.55 78.2527 20.958C78.6367 21.354 79.0867 21.66 79.6027 21.876C80.1187 22.092 80.6887 22.2 81.3127 22.2C82.0807 22.2 82.7287 22.086 83.2567 21.858C83.7967 21.618 84.2527 21.294 84.6247 20.886L86.0287 22.29C85.4527 22.878 84.7747 23.34 83.9947 23.676C83.2147 24.012 82.3207 24.18 81.3127 24.18ZM90.9601 24.18C90.1801 24.18 89.4721 23.982 88.8361 23.586C88.2121 23.19 87.7141 22.656 87.3421 21.984C86.9821 21.3 86.8021 20.538 86.8021 19.698C86.8021 18.846 86.9821 18.084 87.3421 17.412C87.7141 16.728 88.2121 16.188 88.8361 15.792C89.4721 15.384 90.1801 15.18 90.9601 15.18C91.6201 15.18 92.2021 15.324 92.7061 15.612C93.2221 15.888 93.6301 16.272 93.9301 16.764C94.2301 17.256 94.3801 17.814 94.3801 18.438V20.922C94.3801 21.546 94.2301 22.104 93.9301 22.596C93.6421 23.088 93.2401 23.478 92.7241 23.766C92.2081 24.042 91.6201 24.18 90.9601 24.18ZM91.2841 22.308C92.0161 22.308 92.6041 22.062 93.0481 21.57C93.5041 21.078 93.7321 20.448 93.7321 19.68C93.7321 19.164 93.6301 18.708 93.4261 18.312C93.2221 17.916 92.9341 17.61 92.5621 17.394C92.2021 17.166 91.7761 17.052 91.2841 17.052C90.8041 17.052 90.3781 17.166 90.0061 17.394C89.6461 17.61 89.3581 17.916 89.1421 18.312C88.9381 18.708 88.8361 19.164 88.8361 19.68C88.8361 20.196 88.9381 20.652 89.1421 21.048C89.3581 21.444 89.6461 21.756 90.0061 21.984C90.3781 22.2 90.8041 22.308 91.2841 22.308ZM93.6061 24V21.678L93.9481 19.572L93.6061 17.484V15.36H95.5861V24H93.6061ZM97.7835 24V11.04H99.7635V24H97.7835ZM101.967 24V11.04H103.947V24H101.967ZM114.884 24.18C113.936 24.18 113.084 23.964 112.328 23.532C111.572 23.1 110.972 22.512 110.528 21.768C110.096 21.012 109.88 20.16 109.88 19.212V11.4H111.95V19.194C111.95 19.806 112.076 20.34 112.328 20.796C112.592 21.24 112.946 21.588 113.39 21.84C113.834 22.08 114.332 22.2 114.884 22.2C115.448 22.2 115.946 22.08 116.378 21.84C116.81 21.588 117.152 21.24 117.404 20.796C117.656 20.34 117.782 19.812 117.782 19.212V11.4H119.852V19.23C119.852 20.178 119.636 21.024 119.204 21.768C118.772 22.512 118.184 23.1 117.44 23.532C116.696 23.964 115.844 24.18 114.884 24.18ZM125.008 24.18C124.528 24.18 124.066 24.12 123.622 24C123.178 23.868 122.77 23.688 122.398 23.46C122.026 23.22 121.702 22.932 121.426 22.596L122.686 21.336C122.986 21.684 123.328 21.948 123.712 22.128C124.108 22.296 124.552 22.38 125.044 22.38C125.488 22.38 125.824 22.314 126.052 22.182C126.28 22.05 126.394 21.858 126.394 21.606C126.394 21.342 126.286 21.138 126.07 20.994C125.854 20.85 125.572 20.73 125.224 20.634C124.888 20.526 124.528 20.418 124.144 20.31C123.772 20.202 123.412 20.058 123.064 19.878C122.728 19.686 122.452 19.428 122.236 19.104C122.02 18.78 121.912 18.36 121.912 17.844C121.912 17.292 122.038 16.818 122.29 16.422C122.554 16.026 122.92 15.72 123.388 15.504C123.868 15.288 124.438 15.18 125.098 15.18C125.794 15.18 126.406 15.306 126.934 15.558C127.474 15.798 127.924 16.164 128.284 16.656L127.024 17.916C126.772 17.604 126.484 17.37 126.16 17.214C125.836 17.058 125.464 16.98 125.044 16.98C124.648 16.98 124.342 17.04 124.126 17.16C123.91 17.28 123.802 17.454 123.802 17.682C123.802 17.922 123.91 18.108 124.126 18.24C124.342 18.372 124.618 18.486 124.954 18.582C125.302 18.678 125.662 18.786 126.034 18.906C126.418 19.014 126.778 19.17 127.114 19.374C127.462 19.566 127.744 19.83 127.96 20.166C128.176 20.49 128.284 20.916 128.284 21.444C128.284 22.284 127.99 22.95 127.402 23.442C126.814 23.934 126.016 24.18 125.008 24.18ZM139.586 24.18C138.686 24.18 137.846 24.012 137.066 23.676C136.286 23.34 135.602 22.878 135.014 22.29C134.426 21.69 133.964 21 133.628 20.22C133.304 19.428 133.142 18.582 133.142 17.682C133.142 16.782 133.304 15.942 133.628 15.162C133.964 14.382 134.42 13.698 134.996 13.11C135.584 12.51 136.262 12.048 137.03 11.724C137.81 11.388 138.65 11.22 139.55 11.22C140.45 11.22 141.284 11.388 142.052 11.724C142.832 12.048 143.516 12.51 144.104 13.11C144.692 13.698 145.148 14.388 145.472 15.18C145.808 15.96 145.976 16.8 145.976 17.7C145.976 18.6 145.808 19.446 145.472 20.238C145.148 21.018 144.692 21.702 144.104 22.29C143.528 22.878 142.85 23.34 142.07 23.676C141.302 24.012 140.474 24.18 139.586 24.18ZM139.55 22.2C140.402 22.2 141.146 22.008 141.782 21.624C142.43 21.24 142.934 20.712 143.294 20.04C143.666 19.356 143.852 18.57 143.852 17.682C143.852 17.022 143.744 16.422 143.528 15.882C143.324 15.33 143.03 14.856 142.646 14.46C142.262 14.052 141.806 13.74 141.278 13.524C140.762 13.308 140.186 13.2 139.55 13.2C138.71 13.2 137.966 13.392 137.318 13.776C136.682 14.148 136.178 14.67 135.806 15.342C135.446 16.014 135.266 16.794 135.266 17.682C135.266 18.342 135.368 18.954 135.572 19.518C135.788 20.07 136.082 20.544 136.454 20.94C136.838 21.336 137.294 21.648 137.822 21.876C138.35 22.092 138.926 22.2 139.55 22.2ZM153.733 24V19.014C153.733 18.438 153.547 17.964 153.175 17.592C152.815 17.22 152.347 17.034 151.771 17.034C151.387 17.034 151.045 17.118 150.745 17.286C150.445 17.454 150.211 17.688 150.043 17.988C149.875 18.288 149.791 18.63 149.791 19.014L149.017 18.582C149.017 17.922 149.161 17.34 149.449 16.836C149.737 16.32 150.133 15.918 150.637 15.63C151.153 15.33 151.729 15.18 152.365 15.18C153.013 15.18 153.589 15.348 154.093 15.684C154.597 16.008 154.993 16.434 155.281 16.962C155.569 17.478 155.713 18.018 155.713 18.582V24H153.733ZM147.811 24V15.36H149.791V24H147.811ZM159.057 24.18C158.673 24.18 158.355 24.054 158.103 23.802C157.863 23.538 157.743 23.22 157.743 22.848C157.743 22.464 157.863 22.146 158.103 21.894C158.355 21.642 158.673 21.516 159.057 21.516C159.441 21.516 159.753 21.642 159.993 21.894C160.245 22.146 160.371 22.464 160.371 22.848C160.371 23.22 160.245 23.538 159.993 23.802C159.753 24.054 159.441 24.18 159.057 24.18ZM159.057 18.618C158.673 18.618 158.355 18.492 158.103 18.24C157.863 17.976 157.743 17.658 157.743 17.286C157.743 16.902 157.863 16.584 158.103 16.332C158.355 16.08 158.673 15.954 159.057 15.954C159.441 15.954 159.753 16.08 159.993 16.332C160.245 16.584 160.371 16.902 160.371 17.286C160.371 17.658 160.245 17.976 159.993 18.24C159.753 18.492 159.441 18.618 159.057 18.618Z" fill="#CCAA60"/>
<path d="M39.1809 35.8312C38.9828 35.6202 38.2834 34.9964 36.9978 34.171C35.7026 33.3385 34.7475 32.8193 34.4735 32.6983C34.4494 32.6876 34.4228 32.6836 34.3966 32.6869C34.3704 32.6902 34.3455 32.7006 34.3248 32.7169C33.8834 33.0611 33.1404 33.6933 33.1006 33.7274C32.8433 33.9479 32.8433 33.9479 32.6327 33.8792C32.2623 33.7578 31.1118 33.1468 30.1092 32.142C29.1066 31.1371 28.4642 29.9581 28.3427 29.5881C28.2733 29.3772 28.2733 29.3772 28.4945 29.1199C28.5287 29.08 29.1613 28.337 29.5054 27.8961C29.5218 27.8753 29.5321 27.8505 29.5354 27.8243C29.5387 27.7981 29.5347 27.7715 29.524 27.7473C29.403 27.473 28.8839 26.5182 28.0513 25.2231C27.2248 23.9378 26.6017 23.2384 26.3907 23.0404C26.3714 23.0221 26.3474 23.0094 26.3214 23.0036C26.2955 22.9978 26.2684 22.9991 26.2431 23.0073C25.5056 23.2608 24.794 23.5842 24.118 23.9731C23.4655 24.3524 22.8477 24.7886 22.2719 25.2766C22.2518 25.2937 22.2367 25.3159 22.2283 25.3409C22.2199 25.3659 22.2184 25.3927 22.2241 25.4185C22.3034 25.7881 22.6825 27.331 23.8589 29.4682C25.0591 31.6494 25.891 32.767 27.6536 34.5235C29.4163 36.2801 30.5691 37.162 32.7526 38.3623C34.8898 39.5386 36.4335 39.9181 36.8024 39.9967C36.8282 40.0023 36.855 40.0008 36.8801 39.9924C36.9052 39.984 36.9275 39.9689 36.9447 39.9488C37.4325 39.373 37.8686 38.7553 38.2478 38.1027C38.6366 37.4267 38.96 36.7152 39.2135 35.9777C39.2216 35.9526 39.2229 35.9258 39.2172 35.9C39.2114 35.8742 39.1989 35.8505 39.1809 35.8312Z" fill="#CCAA60"/>
</svg>
