<svg width="266" height="62" viewBox="0 0 266 62" fill="none" xmlns="http://www.w3.org/2000/svg">
<circle cx="31.2207" cy="31" r="30" stroke="#CCAA60" stroke-width="2"/>
<path d="M79.1047 53.088L74.5727 42.55H76.7727L80.1387 50.8H79.4347L82.9767 42.55H85.1767L80.2927 53.088H79.1047ZM76.1127 57.378L79.1927 51.064L80.2927 53.088L78.3127 57.378H76.1127ZM91.1674 53.22C90.1407 53.22 89.2167 52.978 88.3954 52.494C87.5741 52.01 86.9214 51.3573 86.4374 50.536C85.9534 49.7 85.7114 48.7687 85.7114 47.742C85.7114 46.73 85.9534 45.8207 86.4374 45.014C86.9214 44.1927 87.5741 43.54 88.3954 43.056C89.2167 42.572 90.1407 42.33 91.1674 42.33C92.1794 42.33 93.0961 42.572 93.9174 43.056C94.7534 43.5253 95.4134 44.1707 95.8974 44.992C96.3814 45.8133 96.6234 46.73 96.6234 47.742C96.6234 48.7687 96.3814 49.7 95.8974 50.536C95.4134 51.3573 94.7534 52.01 93.9174 52.494C93.0961 52.978 92.1794 53.22 91.1674 53.22ZM91.1674 51.306C91.8274 51.306 92.4141 51.152 92.9274 50.844C93.4407 50.536 93.8441 50.118 94.1374 49.59C94.4307 49.0473 94.5774 48.4313 94.5774 47.742C94.5774 47.0673 94.4234 46.466 94.1154 45.938C93.8221 45.41 93.4187 44.9993 92.9054 44.706C92.4067 44.398 91.8274 44.244 91.1674 44.244C90.5074 44.244 89.9207 44.398 89.4074 44.706C88.8941 44.9993 88.4907 45.41 88.1974 45.938C87.9041 46.466 87.7574 47.0673 87.7574 47.742C87.7574 48.4313 87.9041 49.0473 88.1974 49.59C88.4907 50.118 88.8941 50.536 89.4074 50.844C89.9207 51.152 90.5074 51.306 91.1674 51.306ZM103.056 53.22C102.206 53.22 101.436 53.0293 100.746 52.648C100.072 52.252 99.5437 51.7093 99.1623 51.02C98.781 50.3307 98.5903 49.5313 98.5903 48.622V42.55H100.57V48.534C100.57 49.106 100.666 49.6047 100.856 50.03C101.062 50.4407 101.355 50.756 101.736 50.976C102.118 51.196 102.565 51.306 103.078 51.306C103.856 51.306 104.464 51.064 104.904 50.58C105.344 50.0813 105.564 49.3993 105.564 48.534V42.55H107.544V48.622C107.544 49.5313 107.354 50.3307 106.972 51.02C106.591 51.7093 106.063 52.252 105.388 52.648C104.728 53.0293 103.951 53.22 103.056 53.22ZM110.198 53V42.55H112.178V53H110.198ZM112.178 47.038L111.43 46.708C111.43 45.3733 111.738 44.31 112.354 43.518C112.97 42.726 113.857 42.33 115.016 42.33C115.544 42.33 116.021 42.4253 116.446 42.616C116.871 42.792 117.267 43.0927 117.634 43.518L116.336 44.86C116.116 44.6253 115.874 44.4567 115.61 44.354C115.346 44.2513 115.038 44.2 114.686 44.2C113.953 44.2 113.351 44.4347 112.882 44.904C112.413 45.3733 112.178 46.0847 112.178 47.038ZM119.071 53V42.55H121.051V53H119.071ZM126.133 53V46.686C126.133 45.9087 125.891 45.3 125.407 44.86C124.938 44.4053 124.344 44.178 123.625 44.178C123.141 44.178 122.708 44.2807 122.327 44.486C121.946 44.6913 121.638 44.9773 121.403 45.344C121.168 45.7107 121.051 46.1507 121.051 46.664L120.237 46.268C120.237 45.476 120.406 44.7867 120.743 44.2C121.095 43.6133 121.572 43.1587 122.173 42.836C122.774 42.4987 123.449 42.33 124.197 42.33C124.93 42.33 125.59 42.4913 126.177 42.814C126.778 43.1367 127.248 43.5913 127.585 44.178C127.937 44.7647 128.113 45.4613 128.113 46.268V53H126.133ZM133.195 53V46.686C133.195 45.9087 132.953 45.3 132.469 44.86C132 44.4053 131.413 44.178 130.709 44.178C130.225 44.178 129.785 44.2807 129.389 44.486C129.008 44.6913 128.7 44.9773 128.465 45.344C128.23 45.7107 128.113 46.1507 128.113 46.664L126.991 46.268C127.035 45.4613 127.248 44.772 127.629 44.2C128.025 43.6133 128.531 43.1587 129.147 42.836C129.763 42.4987 130.438 42.33 131.171 42.33C131.934 42.33 132.616 42.4913 133.217 42.814C133.818 43.1367 134.295 43.5913 134.647 44.178C135.014 44.7647 135.197 45.4687 135.197 46.29V53H133.195ZM142.335 53.22C141.382 53.22 140.517 52.9853 139.739 52.516C138.962 52.032 138.346 51.3793 137.891 50.558C137.451 49.7367 137.231 48.8127 137.231 47.786C137.231 46.7593 137.451 45.8353 137.891 45.014C138.346 44.1927 138.955 43.54 139.717 43.056C140.495 42.572 141.367 42.33 142.335 42.33C143.127 42.33 143.831 42.4987 144.447 42.836C145.078 43.1587 145.584 43.6133 145.965 44.2C146.347 44.772 146.559 45.4393 146.603 46.202V49.348C146.559 50.096 146.347 50.7633 145.965 51.35C145.599 51.9367 145.1 52.3987 144.469 52.736C143.853 53.0587 143.142 53.22 142.335 53.22ZM142.665 51.35C143.648 51.35 144.44 51.02 145.041 50.36C145.643 49.6853 145.943 48.8273 145.943 47.786C145.943 47.0673 145.804 46.444 145.525 45.916C145.261 45.3733 144.88 44.9553 144.381 44.662C143.883 44.354 143.303 44.2 142.643 44.2C141.983 44.2 141.397 44.354 140.883 44.662C140.385 44.97 139.989 45.3953 139.695 45.938C139.417 46.466 139.277 47.0747 139.277 47.764C139.277 48.468 139.417 49.0913 139.695 49.634C139.989 50.162 140.392 50.58 140.905 50.888C141.419 51.196 142.005 51.35 142.665 51.35ZM145.811 53V50.184L146.185 47.632L145.811 45.102V42.55H147.813V53H145.811ZM150.718 53V42.55H152.698V53H150.718ZM151.708 40.46C151.341 40.46 151.041 40.3427 150.806 40.108C150.571 39.8587 150.454 39.5507 150.454 39.184C150.454 38.832 150.571 38.5387 150.806 38.304C151.041 38.0547 151.341 37.93 151.708 37.93C152.075 37.93 152.375 38.0547 152.61 38.304C152.845 38.5387 152.962 38.832 152.962 39.184C152.962 39.5507 152.845 39.8587 152.61 40.108C152.375 40.3427 152.075 40.46 151.708 40.46ZM155.616 53V37.292H157.596V53H155.616ZM166.961 51.02C166.389 51.02 165.868 50.8807 165.399 50.602C164.944 50.3087 164.57 49.92 164.277 49.436C163.998 48.952 163.859 48.4093 163.859 47.808C163.859 47.2067 163.998 46.664 164.277 46.18C164.57 45.6813 164.944 45.2927 165.399 45.014C165.868 44.7207 166.389 44.574 166.961 44.574C167.665 44.574 168.237 44.75 168.677 45.102C169.132 45.4393 169.359 45.938 169.359 46.598V48.996C169.359 49.6413 169.139 50.14 168.699 50.492C168.259 50.844 167.68 51.02 166.961 51.02ZM167.049 49.634C167.577 49.634 167.995 49.4653 168.303 49.128C168.626 48.776 168.787 48.3287 168.787 47.786C168.787 47.2287 168.626 46.7813 168.303 46.444C167.995 46.1067 167.577 45.938 167.049 45.938C166.565 45.938 166.154 46.114 165.817 46.466C165.494 46.8033 165.333 47.2433 165.333 47.786C165.333 48.3287 165.494 48.776 165.817 49.128C166.14 49.4653 166.55 49.634 167.049 49.634ZM168.897 50.866V49.238L169.117 47.698L168.897 46.224V44.706H170.327V50.866H168.897ZM171.031 52.164L172.131 53.286C171.486 53.8433 170.76 54.2613 169.953 54.54C169.146 54.8333 168.281 54.98 167.357 54.98C166.36 54.98 165.421 54.7967 164.541 54.43C163.676 54.078 162.92 53.5793 162.275 52.934C161.63 52.2887 161.124 51.5333 160.757 50.668C160.39 49.788 160.207 48.8347 160.207 47.808C160.207 46.7813 160.39 45.8353 160.757 44.97C161.138 44.09 161.659 43.3273 162.319 42.682C162.979 42.022 163.749 41.5087 164.629 41.142C165.524 40.7753 166.477 40.592 167.489 40.592C168.838 40.592 170.026 40.9 171.053 41.516C172.094 42.132 172.908 42.9753 173.495 44.046C174.096 45.1167 174.397 46.3487 174.397 47.742C174.397 48.3727 174.331 48.9447 174.199 49.458C174.082 49.9567 173.884 50.426 173.605 50.866L171.911 50.778C172.116 50.4847 172.278 50.1913 172.395 49.898C172.527 49.59 172.622 49.2527 172.681 48.886C172.74 48.5193 172.769 48.1013 172.769 47.632C172.769 46.4733 172.556 45.4907 172.131 44.684C171.72 43.8627 171.119 43.2393 170.327 42.814C169.55 42.374 168.611 42.154 167.511 42.154C166.396 42.154 165.414 42.3887 164.563 42.858C163.727 43.3273 163.074 43.9873 162.605 44.838C162.15 45.674 161.923 46.6713 161.923 47.83C161.923 48.974 162.143 49.964 162.583 50.8C163.038 51.636 163.676 52.2887 164.497 52.758C165.318 53.2127 166.257 53.44 167.313 53.44C168.09 53.44 168.787 53.33 169.403 53.11C170.019 52.9047 170.562 52.5893 171.031 52.164ZM169.513 49.568H173.605V50.866H169.513V49.568ZM176.993 53V42.55H178.973V53H176.993ZM184.055 53V46.686C184.055 45.9087 183.813 45.3 183.329 44.86C182.86 44.4053 182.266 44.178 181.547 44.178C181.063 44.178 180.63 44.2807 180.249 44.486C179.868 44.6913 179.56 44.9773 179.325 45.344C179.09 45.7107 178.973 46.1507 178.973 46.664L178.159 46.268C178.159 45.476 178.328 44.7867 178.665 44.2C179.017 43.6133 179.494 43.1587 180.095 42.836C180.696 42.4987 181.371 42.33 182.119 42.33C182.852 42.33 183.512 42.4913 184.099 42.814C184.7 43.1367 185.17 43.5913 185.507 44.178C185.859 44.7647 186.035 45.4613 186.035 46.268V53H184.055ZM191.117 53V46.686C191.117 45.9087 190.875 45.3 190.391 44.86C189.922 44.4053 189.335 44.178 188.631 44.178C188.147 44.178 187.707 44.2807 187.311 44.486C186.93 44.6913 186.622 44.9773 186.387 45.344C186.152 45.7107 186.035 46.1507 186.035 46.664L184.913 46.268C184.957 45.4613 185.17 44.772 185.551 44.2C185.947 43.6133 186.453 43.1587 187.069 42.836C187.685 42.4987 188.36 42.33 189.093 42.33C189.856 42.33 190.538 42.4913 191.139 42.814C191.74 43.1367 192.217 43.5913 192.569 44.178C192.936 44.7647 193.119 45.4687 193.119 46.29V53H191.117ZM200.257 53.22C199.304 53.22 198.439 52.9853 197.661 52.516C196.884 52.032 196.268 51.3793 195.813 50.558C195.373 49.7367 195.153 48.8127 195.153 47.786C195.153 46.7593 195.373 45.8353 195.813 45.014C196.268 44.1927 196.877 43.54 197.639 43.056C198.417 42.572 199.289 42.33 200.257 42.33C201.049 42.33 201.753 42.4987 202.369 42.836C203 43.1587 203.506 43.6133 203.887 44.2C204.269 44.772 204.481 45.4393 204.525 46.202V49.348C204.481 50.096 204.269 50.7633 203.887 51.35C203.521 51.9367 203.022 52.3987 202.391 52.736C201.775 53.0587 201.064 53.22 200.257 53.22ZM200.587 51.35C201.57 51.35 202.362 51.02 202.963 50.36C203.565 49.6853 203.865 48.8273 203.865 47.786C203.865 47.0673 203.726 46.444 203.447 45.916C203.183 45.3733 202.802 44.9553 202.303 44.662C201.805 44.354 201.225 44.2 200.565 44.2C199.905 44.2 199.319 44.354 198.805 44.662C198.307 44.97 197.911 45.3953 197.617 45.938C197.339 46.466 197.199 47.0747 197.199 47.764C197.199 48.468 197.339 49.0913 197.617 49.634C197.911 50.162 198.314 50.58 198.827 50.888C199.341 51.196 199.927 51.35 200.587 51.35ZM203.733 53V50.184L204.107 47.632L203.733 45.102V42.55H205.735V53H203.733ZM208.64 53V42.55H210.62V53H208.64ZM209.63 40.46C209.263 40.46 208.963 40.3427 208.728 40.108C208.493 39.8587 208.376 39.5507 208.376 39.184C208.376 38.832 208.493 38.5387 208.728 38.304C208.963 38.0547 209.263 37.93 209.63 37.93C209.997 37.93 210.297 38.0547 210.532 38.304C210.767 38.5387 210.884 38.832 210.884 39.184C210.884 39.5507 210.767 39.8587 210.532 40.108C210.297 40.3427 209.997 40.46 209.63 40.46ZM213.538 53V37.292H215.518V53H213.538ZM220.153 53.22C219.742 53.22 219.398 53.0807 219.119 52.802C218.855 52.5087 218.723 52.164 218.723 51.768C218.723 51.3573 218.855 51.02 219.119 50.756C219.398 50.4773 219.742 50.338 220.153 50.338C220.564 50.338 220.901 50.4773 221.165 50.756C221.444 51.02 221.583 51.3573 221.583 51.768C221.583 52.164 221.444 52.5087 221.165 52.802C220.901 53.0807 220.564 53.22 220.153 53.22ZM229.14 53.22C228.113 53.22 227.182 52.978 226.346 52.494C225.525 52.01 224.872 51.3573 224.388 50.536C223.919 49.7 223.684 48.776 223.684 47.764C223.684 46.7373 223.919 45.8133 224.388 44.992C224.872 44.1707 225.525 43.5253 226.346 43.056C227.182 42.572 228.113 42.33 229.14 42.33C229.947 42.33 230.695 42.484 231.384 42.792C232.073 43.0853 232.667 43.518 233.166 44.09L231.846 45.41C231.523 45.0287 231.127 44.7427 230.658 44.552C230.203 44.3467 229.697 44.244 229.14 44.244C228.48 44.244 227.893 44.398 227.38 44.706C226.867 44.9993 226.463 45.41 226.17 45.938C225.877 46.466 225.73 47.0747 225.73 47.764C225.73 48.4533 225.877 49.062 226.17 49.59C226.463 50.118 226.867 50.536 227.38 50.844C227.893 51.152 228.48 51.306 229.14 51.306C229.697 51.306 230.203 51.2107 230.658 51.02C231.127 50.8147 231.531 50.5213 231.868 50.14L233.166 51.46C232.682 52.0173 232.088 52.45 231.384 52.758C230.695 53.066 229.947 53.22 229.14 53.22ZM239.689 53.22C238.662 53.22 237.738 52.978 236.917 52.494C236.096 52.01 235.443 51.3573 234.959 50.536C234.475 49.7 234.233 48.7687 234.233 47.742C234.233 46.73 234.475 45.8207 234.959 45.014C235.443 44.1927 236.096 43.54 236.917 43.056C237.738 42.572 238.662 42.33 239.689 42.33C240.701 42.33 241.618 42.572 242.439 43.056C243.275 43.5253 243.935 44.1707 244.419 44.992C244.903 45.8133 245.145 46.73 245.145 47.742C245.145 48.7687 244.903 49.7 244.419 50.536C243.935 51.3573 243.275 52.01 242.439 52.494C241.618 52.978 240.701 53.22 239.689 53.22ZM239.689 51.306C240.349 51.306 240.936 51.152 241.449 50.844C241.962 50.536 242.366 50.118 242.659 49.59C242.952 49.0473 243.099 48.4313 243.099 47.742C243.099 47.0673 242.945 46.466 242.637 45.938C242.344 45.41 241.94 44.9993 241.427 44.706C240.928 44.398 240.349 44.244 239.689 44.244C239.029 44.244 238.442 44.398 237.929 44.706C237.416 44.9993 237.012 45.41 236.719 45.938C236.426 46.466 236.279 47.0673 236.279 47.742C236.279 48.4313 236.426 49.0473 236.719 49.59C237.012 50.118 237.416 50.536 237.929 50.844C238.442 51.152 239.029 51.306 239.689 51.306ZM247.376 53V42.55H249.356V53H247.376ZM254.438 53V46.686C254.438 45.9087 254.196 45.3 253.712 44.86C253.242 44.4053 252.648 44.178 251.93 44.178C251.446 44.178 251.013 44.2807 250.632 44.486C250.25 44.6913 249.942 44.9773 249.708 45.344C249.473 45.7107 249.356 46.1507 249.356 46.664L248.542 46.268C248.542 45.476 248.71 44.7867 249.048 44.2C249.4 43.6133 249.876 43.1587 250.478 42.836C251.079 42.4987 251.754 42.33 252.502 42.33C253.235 42.33 253.895 42.4913 254.482 42.814C255.083 43.1367 255.552 43.5913 255.89 44.178C256.242 44.7647 256.418 45.4613 256.418 46.268V53H254.438ZM261.5 53V46.686C261.5 45.9087 261.258 45.3 260.774 44.86C260.304 44.4053 259.718 44.178 259.014 44.178C258.53 44.178 258.09 44.2807 257.694 44.486C257.312 44.6913 257.004 44.9773 256.77 45.344C256.535 45.7107 256.418 46.1507 256.418 46.664L255.296 46.268C255.34 45.4613 255.552 44.772 255.934 44.2C256.33 43.6133 256.836 43.1587 257.452 42.836C258.068 42.4987 258.742 42.33 259.476 42.33C260.238 42.33 260.92 42.4913 261.522 42.814C262.123 43.1367 262.6 43.5913 262.952 44.178C263.318 44.7647 263.502 45.4687 263.502 46.29V53H261.5Z" fill="white"/>
<path d="M75.5887 24V11.4H77.6587V24H75.5887ZM77.0107 24V22.11H84.0667V24H77.0107ZM77.0107 18.474V16.656H83.4547V18.474H77.0107ZM77.0107 13.29V11.4H83.9767V13.29H77.0107ZM85.9359 24V15.36H87.9159V24H85.9359ZM91.6779 24V18.852C91.6779 18.276 91.4979 17.832 91.1379 17.52C90.7779 17.196 90.3339 17.034 89.8059 17.034C89.4459 17.034 89.1219 17.106 88.8339 17.25C88.5579 17.394 88.3359 17.604 88.1679 17.88C87.9999 18.144 87.9159 18.468 87.9159 18.852L87.1419 18.42C87.1419 17.76 87.2859 17.19 87.5739 16.71C87.8619 16.23 88.2519 15.858 88.7439 15.594C89.2359 15.318 89.7879 15.18 90.3999 15.18C91.0119 15.18 91.5639 15.312 92.0559 15.576C92.5479 15.84 92.9379 16.212 93.2259 16.692C93.5139 17.172 93.6579 17.748 93.6579 18.42V24H91.6779ZM97.4199 24V18.852C97.4199 18.276 97.2399 17.832 96.8799 17.52C96.5199 17.196 96.0759 17.034 95.5479 17.034C95.1999 17.034 94.8819 17.106 94.5939 17.25C94.3059 17.394 94.0779 17.604 93.9099 17.88C93.7419 18.144 93.6579 18.468 93.6579 18.852L92.5419 18.42C92.6019 17.76 92.7939 17.19 93.1179 16.71C93.4419 16.23 93.8559 15.858 94.3599 15.594C94.8759 15.318 95.4399 15.18 96.0519 15.18C96.6759 15.18 97.2399 15.312 97.7439 15.576C98.2479 15.84 98.6499 16.212 98.9499 16.692C99.2499 17.172 99.3999 17.748 99.3999 18.42V24H97.4199ZM105.058 24.18C104.278 24.18 103.57 23.982 102.934 23.586C102.31 23.19 101.812 22.656 101.44 21.984C101.08 21.3 100.9 20.538 100.9 19.698C100.9 18.846 101.08 18.084 101.44 17.412C101.812 16.728 102.31 16.188 102.934 15.792C103.57 15.384 104.278 15.18 105.058 15.18C105.718 15.18 106.3 15.324 106.804 15.612C107.32 15.888 107.728 16.272 108.028 16.764C108.328 17.256 108.478 17.814 108.478 18.438V20.922C108.478 21.546 108.328 22.104 108.028 22.596C107.74 23.088 107.338 23.478 106.822 23.766C106.306 24.042 105.718 24.18 105.058 24.18ZM105.382 22.308C106.114 22.308 106.702 22.062 107.146 21.57C107.602 21.078 107.83 20.448 107.83 19.68C107.83 19.164 107.728 18.708 107.524 18.312C107.32 17.916 107.032 17.61 106.66 17.394C106.3 17.166 105.874 17.052 105.382 17.052C104.902 17.052 104.476 17.166 104.104 17.394C103.744 17.61 103.456 17.916 103.24 18.312C103.036 18.708 102.934 19.164 102.934 19.68C102.934 20.196 103.036 20.652 103.24 21.048C103.456 21.444 103.744 21.756 104.104 21.984C104.476 22.2 104.902 22.308 105.382 22.308ZM107.704 24V21.678L108.046 19.572L107.704 17.484V15.36H109.684V24H107.704ZM111.899 24V15.36H113.879V24H111.899ZM112.889 13.776C112.553 13.776 112.271 13.662 112.043 13.434C111.827 13.206 111.719 12.924 111.719 12.588C111.719 12.252 111.827 11.97 112.043 11.742C112.271 11.514 112.553 11.4 112.889 11.4C113.237 11.4 113.519 11.514 113.735 11.742C113.951 11.97 114.059 12.252 114.059 12.588C114.059 12.924 113.951 13.206 113.735 13.434C113.519 13.662 113.237 13.776 112.889 13.776ZM116.1 24V11.04H118.08V24H116.1ZM129.017 24.18C128.069 24.18 127.217 23.964 126.461 23.532C125.705 23.1 125.105 22.512 124.661 21.768C124.229 21.012 124.013 20.16 124.013 19.212V11.4H126.083V19.194C126.083 19.806 126.209 20.34 126.461 20.796C126.725 21.24 127.079 21.588 127.523 21.84C127.967 22.08 128.465 22.2 129.017 22.2C129.581 22.2 130.079 22.08 130.511 21.84C130.943 21.588 131.285 21.24 131.537 20.796C131.789 20.34 131.915 19.812 131.915 19.212V11.4H133.985V19.23C133.985 20.178 133.769 21.024 133.337 21.768C132.905 22.512 132.317 23.1 131.573 23.532C130.829 23.964 129.977 24.18 129.017 24.18ZM139.141 24.18C138.661 24.18 138.199 24.12 137.755 24C137.311 23.868 136.903 23.688 136.531 23.46C136.159 23.22 135.835 22.932 135.559 22.596L136.819 21.336C137.119 21.684 137.461 21.948 137.845 22.128C138.241 22.296 138.685 22.38 139.177 22.38C139.621 22.38 139.957 22.314 140.185 22.182C140.413 22.05 140.527 21.858 140.527 21.606C140.527 21.342 140.419 21.138 140.203 20.994C139.987 20.85 139.705 20.73 139.357 20.634C139.021 20.526 138.661 20.418 138.277 20.31C137.905 20.202 137.545 20.058 137.197 19.878C136.861 19.686 136.585 19.428 136.369 19.104C136.153 18.78 136.045 18.36 136.045 17.844C136.045 17.292 136.171 16.818 136.423 16.422C136.687 16.026 137.053 15.72 137.521 15.504C138.001 15.288 138.571 15.18 139.231 15.18C139.927 15.18 140.539 15.306 141.067 15.558C141.607 15.798 142.057 16.164 142.417 16.656L141.157 17.916C140.905 17.604 140.617 17.37 140.293 17.214C139.969 17.058 139.597 16.98 139.177 16.98C138.781 16.98 138.475 17.04 138.259 17.16C138.043 17.28 137.935 17.454 137.935 17.682C137.935 17.922 138.043 18.108 138.259 18.24C138.475 18.372 138.751 18.486 139.087 18.582C139.435 18.678 139.795 18.786 140.167 18.906C140.551 19.014 140.911 19.17 141.247 19.374C141.595 19.566 141.877 19.83 142.093 20.166C142.309 20.49 142.417 20.916 142.417 21.444C142.417 22.284 142.123 22.95 141.535 23.442C140.947 23.934 140.149 24.18 139.141 24.18ZM145.381 24.18C144.997 24.18 144.679 24.054 144.427 23.802C144.187 23.538 144.067 23.22 144.067 22.848C144.067 22.464 144.187 22.146 144.427 21.894C144.679 21.642 144.997 21.516 145.381 21.516C145.765 21.516 146.077 21.642 146.317 21.894C146.569 22.146 146.695 22.464 146.695 22.848C146.695 23.22 146.569 23.538 146.317 23.802C146.077 24.054 145.765 24.18 145.381 24.18ZM145.381 18.618C144.997 18.618 144.679 18.492 144.427 18.24C144.187 17.976 144.067 17.658 144.067 17.286C144.067 16.902 144.187 16.584 144.427 16.332C144.679 16.08 144.997 15.954 145.381 15.954C145.765 15.954 146.077 16.08 146.317 16.332C146.569 16.584 146.695 16.902 146.695 17.286C146.695 17.658 146.569 17.976 146.317 18.24C146.077 18.492 145.765 18.618 145.381 18.618Z" fill="#CCAA60"/>
<path d="M39.5778 24.7998H22.8636C22.6931 24.7998 22.5296 24.8688 22.409 24.9915C22.2884 25.1143 22.2207 25.2808 22.2207 25.4544V38.5453C22.2207 38.7189 22.2884 38.8853 22.409 39.0081C22.5296 39.1308 22.6931 39.1998 22.8636 39.1998H39.5778C39.7483 39.1998 39.9119 39.1308 40.0324 39.0081C40.153 38.8853 40.2207 38.7189 40.2207 38.5453V25.4544C40.2207 25.2808 40.153 25.1143 40.0324 24.9915C39.9119 24.8688 39.7483 24.7998 39.5778 24.7998ZM31.6153 33.171C31.5024 33.2603 31.3636 33.3088 31.2207 33.3088C31.0778 33.3088 30.939 33.2603 30.8261 33.171L24.533 28.1875L25.3221 27.1541L31.2207 31.8251L37.1193 27.1541L37.9084 28.1875L31.6153 33.171Z" fill="#CCAA60"/>
</svg>
