<svg width="298" height="117" viewBox="0 0 298 117" fill="none" xmlns="http://www.w3.org/2000/svg">
<rect width="297" height="116" transform="translate(0.954102 0.5)" fill="#D1B06B"/>
<path d="M43.9541 34.5C43.9541 32.2909 45.745 30.5 47.9541 30.5H119.954C122.163 30.5 123.954 32.2909 123.954 34.5V82.5C123.954 84.7091 122.163 86.5 119.954 86.5H47.9541C45.745 86.5 43.9541 84.7091 43.9541 82.5V34.5Z" fill="#1F2732"/>
<path d="M66.5441 69.83C65.0841 69.83 63.7441 69.58 62.5241 69.08C61.3041 68.56 60.2741 67.82 59.4341 66.86L62.4641 63.83C62.8441 64.39 63.3941 64.85 64.1141 65.21C64.8541 65.55 65.6341 65.72 66.4541 65.72C67.1941 65.72 67.8341 65.59 68.3741 65.33C68.9141 65.07 69.3341 64.7 69.6341 64.22C69.9541 63.74 70.1141 63.17 70.1141 62.51C70.1141 61.85 69.9541 61.29 69.6341 60.83C69.3341 60.35 68.8841 59.98 68.2841 59.72C67.7041 59.46 67.0041 59.33 66.1841 59.33C65.8041 59.33 65.4041 59.36 64.9841 59.42C64.5841 59.46 64.2441 59.53 63.9641 59.63L66.0341 57.02C66.5941 56.86 67.1241 56.73 67.6241 56.63C68.1441 56.51 68.6241 56.45 69.0641 56.45C70.1441 56.45 71.1141 56.71 71.9741 57.23C72.8341 57.73 73.5141 58.45 74.0141 59.39C74.5341 60.31 74.7941 61.41 74.7941 62.69C74.7941 64.09 74.4441 65.33 73.7441 66.41C73.0641 67.49 72.1041 68.33 70.8641 68.93C69.6441 69.53 68.2041 69.83 66.5441 69.83ZM63.9641 59.63V57.02L69.1241 50.96L74.4041 50.93L69.0341 57.05L63.9641 59.63ZM60.7541 52.31V48.32H74.4041V50.93L70.7141 52.31H60.7541ZM83.3319 69.83C81.8719 69.83 80.5019 69.58 79.2219 69.08C77.9619 68.56 76.9119 67.82 76.0719 66.86L79.1319 63.83C79.5119 64.39 80.0619 64.85 80.7819 65.21C81.5219 65.55 82.3219 65.72 83.1819 65.72C83.9419 65.72 84.6019 65.59 85.1619 65.33C85.7219 65.05 86.1619 64.66 86.4819 64.16C86.8019 63.64 86.9619 63.04 86.9619 62.36C86.9619 61.66 86.8019 61.06 86.4819 60.56C86.1619 60.06 85.7119 59.68 85.1319 59.42C84.5719 59.14 83.9319 59 83.2119 59C82.4919 59 81.8319 59.1 81.2319 59.3C80.6319 59.48 80.0819 59.76 79.5819 60.14L79.9719 57.14C80.4319 56.78 80.8719 56.49 81.2919 56.27C81.7119 56.03 82.1719 55.85 82.6719 55.73C83.1719 55.61 83.7619 55.55 84.4419 55.55C86.0019 55.55 87.3119 55.87 88.3719 56.51C89.4519 57.15 90.2619 58 90.8019 59.06C91.3619 60.12 91.6419 61.29 91.6419 62.57C91.6419 63.97 91.2919 65.22 90.5919 66.32C89.9119 67.42 88.9519 68.28 87.7119 68.9C86.4719 69.52 85.0119 69.83 83.3319 69.83ZM79.5819 60.14L77.5419 58.25L78.5619 48.32H82.8219L81.7119 58.16L79.5819 60.14ZM79.1919 52.31L78.5619 48.32H90.4719V52.31H79.1919ZM93.969 61.37V57.56H107.919V61.37H93.969ZM99.009 52.13H102.909V66.74H99.009V52.13Z" fill="white"/>
<path d="M152.444 50.34L146.438 41.1H149.364L154.05 48.47H152.686L157.372 41.1H160.254L154.204 50.34H152.444ZM152.092 56.5V48.756H154.622V56.5H152.092ZM163.761 56.72C162.705 56.72 161.751 56.4853 160.901 56.016C160.065 55.532 159.397 54.872 158.899 54.036C158.415 53.2 158.173 52.2613 158.173 51.22C158.173 50.1787 158.415 49.2473 158.899 48.426C159.383 47.59 160.035 46.93 160.857 46.446C161.693 45.962 162.617 45.72 163.629 45.72C164.611 45.72 165.477 45.9473 166.225 46.402C166.987 46.8567 167.581 47.48 168.007 48.272C168.447 49.064 168.667 49.966 168.667 50.978C168.667 51.154 168.652 51.3373 168.623 51.528C168.608 51.704 168.579 51.902 168.535 52.122H159.867V50.142H167.281L166.379 50.934C166.349 50.2887 166.225 49.746 166.005 49.306C165.785 48.866 165.469 48.5287 165.059 48.294C164.663 48.0593 164.171 47.942 163.585 47.942C162.969 47.942 162.433 48.074 161.979 48.338C161.524 48.602 161.172 48.976 160.923 49.46C160.673 49.9293 160.549 50.494 160.549 51.154C160.549 51.814 160.681 52.3933 160.945 52.892C161.209 53.3907 161.583 53.7793 162.067 54.058C162.551 54.322 163.108 54.454 163.739 54.454C164.281 54.454 164.78 54.3587 165.235 54.168C165.704 53.9773 166.1 53.6987 166.423 53.332L167.963 54.894C167.449 55.4953 166.826 55.95 166.093 56.258C165.359 56.566 164.582 56.72 163.761 56.72ZM175.029 56.72C174.075 56.72 173.21 56.478 172.433 55.994C171.67 55.51 171.061 54.8573 170.607 54.036C170.167 53.2 169.947 52.2687 169.947 51.242C169.947 50.2007 170.167 49.2693 170.607 48.448C171.061 47.612 171.67 46.952 172.433 46.468C173.21 45.9693 174.075 45.72 175.029 45.72C175.835 45.72 176.547 45.896 177.163 46.248C177.793 46.5853 178.292 47.0547 178.659 47.656C179.025 48.2573 179.209 48.9393 179.209 49.702V52.738C179.209 53.5007 179.025 54.1827 178.659 54.784C178.307 55.3853 177.815 55.862 177.185 56.214C176.554 56.5513 175.835 56.72 175.029 56.72ZM175.425 54.432C176.319 54.432 177.038 54.1313 177.581 53.53C178.138 52.9287 178.417 52.1587 178.417 51.22C178.417 50.5893 178.292 50.032 178.043 49.548C177.793 49.064 177.441 48.69 176.987 48.426C176.547 48.1473 176.026 48.008 175.425 48.008C174.838 48.008 174.317 48.1473 173.863 48.426C173.423 48.69 173.071 49.064 172.807 49.548C172.557 50.032 172.433 50.5893 172.433 51.22C172.433 51.8507 172.557 52.408 172.807 52.892C173.071 53.376 173.423 53.7573 173.863 54.036C174.317 54.3 174.838 54.432 175.425 54.432ZM178.263 56.5V53.662L178.681 51.088L178.263 48.536V45.94H180.683V56.5H178.263ZM183.368 56.5V45.94H185.788V56.5H183.368ZM185.788 50.626L184.952 50.208C184.952 48.8733 185.246 47.7953 185.832 46.974C186.434 46.138 187.336 45.72 188.538 45.72C189.066 45.72 189.543 45.8153 189.968 46.006C190.394 46.1967 190.79 46.5047 191.156 46.93L189.572 48.558C189.382 48.3527 189.169 48.206 188.934 48.118C188.7 48.03 188.428 47.986 188.12 47.986C187.446 47.986 186.888 48.1987 186.448 48.624C186.008 49.0493 185.788 49.7167 185.788 50.626ZM195.545 56.72C194.958 56.72 194.394 56.6467 193.851 56.5C193.308 56.3387 192.81 56.1187 192.355 55.84C191.9 55.5467 191.504 55.1947 191.167 54.784L192.707 53.244C193.074 53.6693 193.492 53.992 193.961 54.212C194.445 54.4173 194.988 54.52 195.589 54.52C196.132 54.52 196.542 54.4393 196.821 54.278C197.1 54.1167 197.239 53.882 197.239 53.574C197.239 53.2513 197.107 53.002 196.843 52.826C196.579 52.65 196.234 52.5033 195.809 52.386C195.398 52.254 194.958 52.122 194.489 51.99C194.034 51.858 193.594 51.682 193.169 51.462C192.758 51.2273 192.421 50.912 192.157 50.516C191.893 50.12 191.761 49.6067 191.761 48.976C191.761 48.3013 191.915 47.722 192.223 47.238C192.546 46.754 192.993 46.38 193.565 46.116C194.152 45.852 194.848 45.72 195.655 45.72C196.506 45.72 197.254 45.874 197.899 46.182C198.559 46.4753 199.109 46.9227 199.549 47.524L198.009 49.064C197.701 48.6827 197.349 48.3967 196.953 48.206C196.557 48.0153 196.102 47.92 195.589 47.92C195.105 47.92 194.731 47.9933 194.467 48.14C194.203 48.2867 194.071 48.4993 194.071 48.778C194.071 49.0713 194.203 49.2987 194.467 49.46C194.731 49.6213 195.068 49.7607 195.479 49.878C195.904 49.9953 196.344 50.1273 196.799 50.274C197.268 50.406 197.708 50.5967 198.119 50.846C198.544 51.0807 198.889 51.4033 199.153 51.814C199.417 52.21 199.549 52.7307 199.549 53.376C199.549 54.4027 199.19 55.2167 198.471 55.818C197.752 56.4193 196.777 56.72 195.545 56.72ZM147.626 77.5V62.1H150.156V77.5H147.626ZM149.364 77.5V75.19H157.988V77.5H149.364ZM149.364 70.746V68.524H157.24V70.746H149.364ZM149.364 64.41V62.1H157.878V64.41H149.364ZM166.961 77.5L163.925 73.034L163.485 72.638L159.393 66.94H162.319L165.025 70.856L165.443 71.23L169.865 77.5H166.961ZM159.195 77.5L163.463 71.582L164.871 73.32L162.011 77.5H159.195ZM165.663 72.594L164.233 70.878L166.873 66.94H169.667L165.663 72.594ZM177.12 77.72C176.313 77.72 175.595 77.5513 174.964 77.214C174.333 76.862 173.835 76.3853 173.468 75.784C173.116 75.1827 172.94 74.5007 172.94 73.738V70.702C172.94 69.9393 173.123 69.2573 173.49 68.656C173.857 68.0547 174.355 67.5853 174.986 67.248C175.617 66.896 176.328 66.72 177.12 66.72C178.073 66.72 178.931 66.9693 179.694 67.468C180.471 67.952 181.08 68.612 181.52 69.448C181.975 70.2693 182.202 71.2007 182.202 72.242C182.202 73.2687 181.975 74.2 181.52 75.036C181.08 75.8573 180.471 76.51 179.694 76.994C178.931 77.478 178.073 77.72 177.12 77.72ZM176.724 75.432C177.311 75.432 177.824 75.3 178.264 75.036C178.719 74.7573 179.071 74.376 179.32 73.892C179.584 73.408 179.716 72.8507 179.716 72.22C179.716 71.5893 179.584 71.032 179.32 70.548C179.071 70.064 178.719 69.69 178.264 69.426C177.824 69.1473 177.311 69.008 176.724 69.008C176.137 69.008 175.617 69.1473 175.162 69.426C174.707 69.69 174.355 70.064 174.106 70.548C173.857 71.032 173.732 71.5893 173.732 72.22C173.732 72.8507 173.857 73.408 174.106 73.892C174.355 74.376 174.707 74.7573 175.162 75.036C175.617 75.3 176.137 75.432 176.724 75.432ZM171.466 81.9V66.94H173.886V69.778L173.468 72.352L173.886 74.904V81.9H171.466ZM189.134 77.72C188.078 77.72 187.124 77.4853 186.274 77.016C185.438 76.532 184.77 75.872 184.272 75.036C183.788 74.2 183.546 73.2613 183.546 72.22C183.546 71.1787 183.788 70.2473 184.272 69.426C184.756 68.59 185.408 67.93 186.23 67.446C187.066 66.962 187.99 66.72 189.002 66.72C189.984 66.72 190.85 66.9473 191.598 67.402C192.36 67.8567 192.954 68.48 193.38 69.272C193.82 70.064 194.04 70.966 194.04 71.978C194.04 72.154 194.025 72.3373 193.996 72.528C193.981 72.704 193.952 72.902 193.908 73.122H185.24V71.142H192.654L191.752 71.934C191.722 71.2887 191.598 70.746 191.378 70.306C191.158 69.866 190.842 69.5287 190.432 69.294C190.036 69.0593 189.544 68.942 188.958 68.942C188.342 68.942 187.806 69.074 187.352 69.338C186.897 69.602 186.545 69.976 186.296 70.46C186.046 70.9293 185.922 71.494 185.922 72.154C185.922 72.814 186.054 73.3933 186.318 73.892C186.582 74.3907 186.956 74.7793 187.44 75.058C187.924 75.322 188.481 75.454 189.112 75.454C189.654 75.454 190.153 75.3587 190.608 75.168C191.077 74.9773 191.473 74.6987 191.796 74.332L193.336 75.894C192.822 76.4953 192.199 76.95 191.466 77.258C190.732 77.566 189.955 77.72 189.134 77.72ZM195.98 77.5V66.94H198.4V77.5H195.98ZM198.4 71.626L197.564 71.208C197.564 69.8733 197.857 68.7953 198.444 67.974C199.045 67.138 199.947 66.72 201.15 66.72C201.678 66.72 202.154 66.8153 202.58 67.006C203.005 67.1967 203.401 67.5047 203.768 67.93L202.184 69.558C201.993 69.3527 201.78 69.206 201.546 69.118C201.311 69.03 201.04 68.986 200.732 68.986C200.057 68.986 199.5 69.1987 199.06 69.624C198.62 70.0493 198.4 70.7167 198.4 71.626ZM204.961 77.5V66.94H207.381V77.5H204.961ZM206.171 65.004C205.76 65.004 205.415 64.8647 205.137 64.586C204.873 64.3073 204.741 63.9627 204.741 63.552C204.741 63.1413 204.873 62.7967 205.137 62.518C205.415 62.2393 205.76 62.1 206.171 62.1C206.596 62.1 206.941 62.2393 207.205 62.518C207.469 62.7967 207.601 63.1413 207.601 63.552C207.601 63.9627 207.469 64.3073 207.205 64.586C206.941 64.8647 206.596 65.004 206.171 65.004ZM215.001 77.72C213.945 77.72 212.992 77.4853 212.141 77.016C211.305 76.532 210.638 75.872 210.139 75.036C209.655 74.2 209.413 73.2613 209.413 72.22C209.413 71.1787 209.655 70.2473 210.139 69.426C210.623 68.59 211.276 67.93 212.097 67.446C212.933 66.962 213.857 66.72 214.869 66.72C215.852 66.72 216.717 66.9473 217.465 67.402C218.228 67.8567 218.822 68.48 219.247 69.272C219.687 70.064 219.907 70.966 219.907 71.978C219.907 72.154 219.892 72.3373 219.863 72.528C219.848 72.704 219.819 72.902 219.775 73.122H211.107V71.142H218.521L217.619 71.934C217.59 71.2887 217.465 70.746 217.245 70.306C217.025 69.866 216.71 69.5287 216.299 69.294C215.903 69.0593 215.412 68.942 214.825 68.942C214.209 68.942 213.674 69.074 213.219 69.338C212.764 69.602 212.412 69.976 212.163 70.46C211.914 70.9293 211.789 71.494 211.789 72.154C211.789 72.814 211.921 73.3933 212.185 73.892C212.449 74.3907 212.823 74.7793 213.307 75.058C213.791 75.322 214.348 75.454 214.979 75.454C215.522 75.454 216.02 75.3587 216.475 75.168C216.944 74.9773 217.34 74.6987 217.663 74.332L219.203 75.894C218.69 76.4953 218.066 76.95 217.333 77.258C216.6 77.566 215.822 77.72 215.001 77.72ZM229.085 77.5V71.406C229.085 70.702 228.858 70.1227 228.403 69.668C227.963 69.2133 227.391 68.986 226.687 68.986C226.218 68.986 225.8 69.0887 225.433 69.294C225.066 69.4993 224.78 69.7853 224.575 70.152C224.37 70.5187 224.267 70.9367 224.267 71.406L223.321 70.878C223.321 70.0713 223.497 69.36 223.849 68.744C224.201 68.1133 224.685 67.622 225.301 67.27C225.932 66.9033 226.636 66.72 227.413 66.72C228.205 66.72 228.909 66.9253 229.525 67.336C230.141 67.732 230.625 68.2527 230.977 68.898C231.329 69.5287 231.505 70.1887 231.505 70.878V77.5H229.085ZM221.847 77.5V66.94H224.267V77.5H221.847ZM238.826 77.72C237.785 77.72 236.839 77.478 235.988 76.994C235.152 76.51 234.492 75.85 234.008 75.014C233.524 74.178 233.282 73.2467 233.282 72.22C233.282 71.1787 233.524 70.2473 234.008 69.426C234.492 68.59 235.152 67.93 235.988 67.446C236.839 66.962 237.785 66.72 238.826 66.72C239.647 66.72 240.41 66.8813 241.114 67.204C241.833 67.512 242.441 67.9593 242.94 68.546L241.356 70.152C241.048 69.7853 240.674 69.514 240.234 69.338C239.809 69.1473 239.339 69.052 238.826 69.052C238.225 69.052 237.689 69.1913 237.22 69.47C236.765 69.734 236.406 70.1007 236.142 70.57C235.893 71.0393 235.768 71.5893 235.768 72.22C235.768 72.836 235.893 73.386 236.142 73.87C236.406 74.3393 236.765 74.7133 237.22 74.992C237.689 75.256 238.225 75.388 238.826 75.388C239.339 75.388 239.809 75.3 240.234 75.124C240.674 74.9333 241.048 74.6547 241.356 74.288L242.94 75.894C242.441 76.4807 241.833 76.9353 241.114 77.258C240.41 77.566 239.647 77.72 238.826 77.72ZM249.376 77.72C248.32 77.72 247.367 77.4853 246.516 77.016C245.68 76.532 245.013 75.872 244.514 75.036C244.03 74.2 243.788 73.2613 243.788 72.22C243.788 71.1787 244.03 70.2473 244.514 69.426C244.998 68.59 245.651 67.93 246.472 67.446C247.308 66.962 248.232 66.72 249.244 66.72C250.227 66.72 251.092 66.9473 251.84 67.402C252.603 67.8567 253.197 68.48 253.622 69.272C254.062 70.064 254.282 70.966 254.282 71.978C254.282 72.154 254.267 72.3373 254.238 72.528C254.223 72.704 254.194 72.902 254.15 73.122H245.482V71.142H252.896L251.994 71.934C251.965 71.2887 251.84 70.746 251.62 70.306C251.4 69.866 251.085 69.5287 250.674 69.294C250.278 69.0593 249.787 68.942 249.2 68.942C248.584 68.942 248.049 69.074 247.594 69.338C247.139 69.602 246.787 69.976 246.538 70.46C246.289 70.9293 246.164 71.494 246.164 72.154C246.164 72.814 246.296 73.3933 246.56 73.892C246.824 74.3907 247.198 74.7793 247.682 75.058C248.166 75.322 248.723 75.454 249.354 75.454C249.897 75.454 250.395 75.3587 250.85 75.168C251.319 74.9773 251.715 74.6987 252.038 74.332L253.578 75.894C253.065 76.4953 252.441 76.95 251.708 77.258C250.975 77.566 250.197 77.72 249.376 77.72Z" fill="#1F2732"/>
</svg>
