<svg width="298" height="117" viewBox="0 0 298 117" fill="none" xmlns="http://www.w3.org/2000/svg">
<rect width="297.954" height="115.385" transform="translate(0 0.807617)" fill="#3B434E"/>
<path d="M98.9306 35.3669L95.0858 43.8522C94.9095 44.2412 94.8184 44.6633 94.8184 45.0904V82.9391C94.8184 84.0437 95.7138 84.9391 96.8184 84.9391H101.954C103.058 84.9391 103.954 84.0437 103.954 82.9391V45.0904C103.954 44.6633 103.863 44.2412 103.686 43.8522L99.8415 35.3669C99.6641 34.9754 99.108 34.9754 98.9306 35.3669Z" stroke="#D1B06B" stroke-width="2"/>
<path d="M94.8184 45.0903H99.957H103.954" stroke="#D1B06B" stroke-width="2"/>
<rect x="53.834" y="55.144" width="28.0038" height="2.33365" rx="1.16683" fill="#D1B06B"/>
<rect x="55.168" y="38.9756" width="10.1678" height="7.83413" rx="1.5" stroke="#D1B06B" stroke-width="2"/>
<rect x="53.834" y="66.8125" width="28.0038" height="2.33365" rx="1.16683" fill="#D1B06B"/>
<rect x="53.834" y="72.6465" width="17.5024" height="2.33365" rx="1.16683" fill="#D1B06B"/>
<rect x="53.834" y="60.9785" width="28.0038" height="2.33365" rx="1.16683" fill="#D1B06B"/>
<path d="M94.8184 79.8306H103.954" stroke="#D1B06B" stroke-width="2"/>
<path d="M48 38.8076V78.1925C48 82.0585 51.134 85.1925 55 85.1925H81.2603C85.1263 85.1925 88.2603 82.0585 88.2603 78.1925V46.5358C88.2603 44.5484 87.4154 42.6546 85.9365 41.3269L77.3278 33.5987C76.0432 32.4455 74.3778 31.8076 72.6516 31.8076H55C51.134 31.8076 48 34.9416 48 38.8076Z" stroke="#D1B06B" stroke-width="2"/>
<path d="M72.9805 32.0249V41.6966C72.9805 43.9058 74.7713 45.6966 76.9805 45.6966H87.2898" stroke="#D1B06B" stroke-width="2" stroke-linecap="round"/>
<path d="M123.968 56.5L128.478 50.186L129.38 49.636C129.233 49.9587 129.043 50.2447 128.808 50.494C128.588 50.7433 128.295 50.934 127.928 51.066C127.561 51.198 127.092 51.264 126.52 51.264C125.64 51.264 124.833 51.0587 124.1 50.648C123.367 50.2227 122.78 49.636 122.34 48.888C121.9 48.14 121.68 47.2747 121.68 46.292C121.68 45.2947 121.922 44.3853 122.406 43.564C122.905 42.7427 123.565 42.09 124.386 41.606C125.207 41.122 126.124 40.88 127.136 40.88C128.163 40.88 129.087 41.122 129.908 41.606C130.729 42.0753 131.375 42.7133 131.844 43.52C132.328 44.312 132.57 45.2067 132.57 46.204C132.57 47.612 132.079 49.0347 131.096 50.472L126.894 56.5H123.968ZM127.136 49.284C127.693 49.284 128.192 49.152 128.632 48.888C129.072 48.624 129.417 48.2647 129.666 47.81C129.915 47.3553 130.04 46.8493 130.04 46.292C130.04 45.7053 129.915 45.1847 129.666 44.73C129.417 44.2753 129.072 43.916 128.632 43.652C128.192 43.388 127.693 43.256 127.136 43.256C126.579 43.256 126.08 43.388 125.64 43.652C125.2 43.916 124.848 44.2753 124.584 44.73C124.335 45.1847 124.21 45.7053 124.21 46.292C124.21 46.864 124.335 47.3773 124.584 47.832C124.848 48.272 125.2 48.624 125.64 48.888C126.095 49.152 126.593 49.284 127.136 49.284ZM138.742 56.72C137.671 56.72 136.718 56.5367 135.882 56.17C135.046 55.7887 134.342 55.2387 133.77 54.52L135.486 52.804C135.794 53.2733 136.226 53.6473 136.784 53.926C137.356 54.2047 137.994 54.344 138.698 54.344C139.343 54.344 139.908 54.2267 140.392 53.992C140.876 53.7573 141.257 53.42 141.536 52.98C141.814 52.54 141.954 52.0193 141.954 51.418C141.954 50.7873 141.814 50.2667 141.536 49.856C141.272 49.4307 140.912 49.1153 140.458 48.91C140.018 48.69 139.541 48.58 139.028 48.58C138.441 48.58 137.913 48.646 137.444 48.778C136.989 48.91 136.542 49.1447 136.102 49.482L136.168 47.898C136.402 47.59 136.674 47.3407 136.982 47.15C137.29 46.9447 137.649 46.7907 138.06 46.688C138.47 46.5853 138.954 46.534 139.512 46.534C140.597 46.534 141.506 46.7613 142.24 47.216C142.988 47.6707 143.552 48.2793 143.934 49.042C144.315 49.79 144.506 50.626 144.506 51.55C144.506 52.5473 144.256 53.4347 143.758 54.212C143.274 54.9893 142.599 55.6053 141.734 56.06C140.868 56.5 139.871 56.72 138.742 56.72ZM136.102 49.482L134.716 48.096L135.398 41.1H137.708L136.916 48.382L136.102 49.482ZM135.838 43.366L135.398 41.1H143.648V43.366H135.838ZM149.3 47.106C148.728 47.106 148.2 46.9667 147.716 46.688C147.247 46.4093 146.873 46.0353 146.594 45.566C146.315 45.0967 146.176 44.5687 146.176 43.982C146.176 43.3953 146.315 42.8747 146.594 42.42C146.873 41.9507 147.247 41.5767 147.716 41.298C148.185 41.0193 148.713 40.88 149.3 40.88C149.887 40.88 150.415 41.0193 150.884 41.298C151.368 41.5767 151.749 41.9507 152.028 42.42C152.307 42.8747 152.446 43.3953 152.446 43.982C152.446 44.5687 152.307 45.0967 152.028 45.566C151.749 46.0353 151.375 46.4093 150.906 46.688C150.437 46.9667 149.901 47.106 149.3 47.106ZM149.3 45.236C149.667 45.236 149.96 45.1187 150.18 44.884C150.4 44.6493 150.51 44.3487 150.51 43.982C150.51 43.6153 150.393 43.322 150.158 43.102C149.938 42.8673 149.652 42.75 149.3 42.75C148.948 42.75 148.662 42.8673 148.442 43.102C148.222 43.322 148.112 43.6153 148.112 43.982C148.112 44.3487 148.222 44.6493 148.442 44.884C148.662 45.1187 148.948 45.236 149.3 45.236ZM155.746 56.72C155.174 56.72 154.646 56.5807 154.162 56.302C153.693 56.0233 153.319 55.6493 153.04 55.18C152.761 54.7107 152.622 54.1827 152.622 53.596C152.622 53.0093 152.761 52.4887 153.04 52.034C153.319 51.5647 153.693 51.1907 154.162 50.912C154.631 50.6333 155.159 50.494 155.746 50.494C156.333 50.494 156.861 50.6333 157.33 50.912C157.814 51.1907 158.195 51.5647 158.474 52.034C158.753 52.4887 158.892 53.0093 158.892 53.596C158.892 54.1827 158.753 54.7107 158.474 55.18C158.195 55.6493 157.821 56.0233 157.352 56.302C156.883 56.5807 156.347 56.72 155.746 56.72ZM155.746 54.85C156.113 54.85 156.406 54.7327 156.626 54.498C156.861 54.2633 156.978 53.9627 156.978 53.596C156.978 53.244 156.861 52.9507 156.626 52.716C156.391 52.4813 156.098 52.364 155.746 52.364C155.394 52.364 155.108 52.4813 154.888 52.716C154.668 52.9507 154.558 53.244 154.558 53.596C154.558 53.9627 154.668 54.2633 154.888 54.498C155.108 54.7327 155.394 54.85 155.746 54.85ZM146.396 56.5L156.274 41.1H158.672L148.794 56.5H146.396ZM129.622 77.72C128.507 77.72 127.473 77.522 126.52 77.126C125.581 76.7153 124.76 76.1507 124.056 75.432C123.352 74.6987 122.809 73.8553 122.428 72.902C122.047 71.934 121.856 70.9 121.856 69.8C121.856 68.7 122.047 67.6733 122.428 66.72C122.809 65.752 123.352 64.9087 124.056 64.19C124.76 63.4713 125.581 62.9067 126.52 62.496C127.473 62.0853 128.507 61.88 129.622 61.88C130.869 61.88 131.947 62.0853 132.856 62.496C133.765 62.9067 134.572 63.464 135.276 64.168L133.56 65.884C133.105 65.3853 132.548 64.9967 131.888 64.718C131.243 64.4393 130.487 64.3 129.622 64.3C128.859 64.3 128.163 64.432 127.532 64.696C126.901 64.96 126.351 65.3413 125.882 65.84C125.427 66.324 125.075 66.9033 124.826 67.578C124.577 68.2527 124.452 68.9933 124.452 69.8C124.452 70.6067 124.577 71.3473 124.826 72.022C125.075 72.6967 125.427 73.2833 125.882 73.782C126.351 74.266 126.901 74.64 127.532 74.904C128.163 75.168 128.859 75.3 129.622 75.3C130.561 75.3 131.353 75.1607 131.998 74.882C132.658 74.5887 133.215 74.1927 133.67 73.694L135.386 75.41C134.682 76.1287 133.853 76.6933 132.9 77.104C131.947 77.5147 130.854 77.72 129.622 77.72ZM141.413 77.72C140.46 77.72 139.595 77.478 138.817 76.994C138.055 76.51 137.446 75.8573 136.991 75.036C136.551 74.2 136.331 73.2687 136.331 72.242C136.331 71.2007 136.551 70.2693 136.991 69.448C137.446 68.612 138.055 67.952 138.817 67.468C139.595 66.9693 140.46 66.72 141.413 66.72C142.22 66.72 142.931 66.896 143.547 67.248C144.178 67.5853 144.677 68.0547 145.043 68.656C145.41 69.2573 145.593 69.9393 145.593 70.702V73.738C145.593 74.5007 145.41 75.1827 145.043 75.784C144.691 76.3853 144.2 76.862 143.569 77.214C142.939 77.5513 142.22 77.72 141.413 77.72ZM141.809 75.432C142.704 75.432 143.423 75.1313 143.965 74.53C144.523 73.9287 144.801 73.1587 144.801 72.22C144.801 71.5893 144.677 71.032 144.427 70.548C144.178 70.064 143.826 69.69 143.371 69.426C142.931 69.1473 142.411 69.008 141.809 69.008C141.223 69.008 140.702 69.1473 140.247 69.426C139.807 69.69 139.455 70.064 139.191 70.548C138.942 71.032 138.817 71.5893 138.817 72.22C138.817 72.8507 138.942 73.408 139.191 73.892C139.455 74.376 139.807 74.7573 140.247 75.036C140.702 75.3 141.223 75.432 141.809 75.432ZM144.647 77.5V74.662L145.065 72.088L144.647 69.536V66.94H147.067V77.5H144.647ZM153.207 77.72C152.62 77.72 152.056 77.6467 151.513 77.5C150.97 77.3387 150.472 77.1187 150.017 76.84C149.562 76.5467 149.166 76.1947 148.829 75.784L150.369 74.244C150.736 74.6693 151.154 74.992 151.623 75.212C152.107 75.4173 152.65 75.52 153.251 75.52C153.794 75.52 154.204 75.4393 154.483 75.278C154.762 75.1167 154.901 74.882 154.901 74.574C154.901 74.2513 154.769 74.002 154.505 73.826C154.241 73.65 153.896 73.5033 153.471 73.386C153.06 73.254 152.62 73.122 152.151 72.99C151.696 72.858 151.256 72.682 150.831 72.462C150.42 72.2273 150.083 71.912 149.819 71.516C149.555 71.12 149.423 70.6067 149.423 69.976C149.423 69.3013 149.577 68.722 149.885 68.238C150.208 67.754 150.655 67.38 151.227 67.116C151.814 66.852 152.51 66.72 153.317 66.72C154.168 66.72 154.916 66.874 155.561 67.182C156.221 67.4753 156.771 67.9227 157.211 68.524L155.671 70.064C155.363 69.6827 155.011 69.3967 154.615 69.206C154.219 69.0153 153.764 68.92 153.251 68.92C152.767 68.92 152.393 68.9933 152.129 69.14C151.865 69.2867 151.733 69.4993 151.733 69.778C151.733 70.0713 151.865 70.2987 152.129 70.46C152.393 70.6213 152.73 70.7607 153.141 70.878C153.566 70.9953 154.006 71.1273 154.461 71.274C154.93 71.406 155.37 71.5967 155.781 71.846C156.206 72.0807 156.551 72.4033 156.815 72.814C157.079 73.21 157.211 73.7307 157.211 74.376C157.211 75.4027 156.852 76.2167 156.133 76.818C155.414 77.4193 154.439 77.72 153.207 77.72ZM164.112 77.72C163.056 77.72 162.103 77.4853 161.252 77.016C160.416 76.532 159.749 75.872 159.25 75.036C158.766 74.2 158.524 73.2613 158.524 72.22C158.524 71.1787 158.766 70.2473 159.25 69.426C159.734 68.59 160.387 67.93 161.208 67.446C162.044 66.962 162.968 66.72 163.98 66.72C164.963 66.72 165.828 66.9473 166.576 67.402C167.339 67.8567 167.933 68.48 168.358 69.272C168.798 70.064 169.018 70.966 169.018 71.978C169.018 72.154 169.004 72.3373 168.974 72.528C168.96 72.704 168.93 72.902 168.886 73.122H160.218V71.142H167.632L166.73 71.934C166.701 71.2887 166.576 70.746 166.356 70.306C166.136 69.866 165.821 69.5287 165.41 69.294C165.014 69.0593 164.523 68.942 163.936 68.942C163.32 68.942 162.785 69.074 162.33 69.338C161.876 69.602 161.524 69.976 161.274 70.46C161.025 70.9293 160.9 71.494 160.9 72.154C160.9 72.814 161.032 73.3933 161.296 73.892C161.56 74.3907 161.934 74.7793 162.418 75.058C162.902 75.322 163.46 75.454 164.09 75.454C164.633 75.454 165.132 75.3587 165.586 75.168C166.056 74.9773 166.452 74.6987 166.774 74.332L168.314 75.894C167.801 76.4953 167.178 76.95 166.444 77.258C165.711 77.566 164.934 77.72 164.112 77.72ZM179.983 77.72C178.765 77.72 177.731 77.5 176.881 77.06C176.03 76.62 175.267 75.9747 174.593 75.124L176.309 73.408C176.734 74.024 177.24 74.508 177.827 74.86C178.413 75.1973 179.161 75.366 180.071 75.366C180.921 75.366 181.596 75.19 182.095 74.838C182.608 74.486 182.865 74.002 182.865 73.386C182.865 72.8727 182.733 72.4547 182.469 72.132C182.205 71.8093 181.853 71.5453 181.413 71.34C180.987 71.12 180.511 70.9293 179.983 70.768C179.469 70.592 178.949 70.4013 178.421 70.196C177.907 69.976 177.431 69.7047 176.991 69.382C176.565 69.0593 176.221 68.6413 175.957 68.128C175.693 67.6147 175.561 66.962 175.561 66.17C175.561 65.2607 175.781 64.4907 176.221 63.86C176.675 63.2147 177.284 62.7233 178.047 62.386C178.809 62.0487 179.66 61.88 180.599 61.88C181.611 61.88 182.513 62.078 183.305 62.474C184.111 62.87 184.764 63.376 185.263 63.992L183.547 65.708C183.107 65.2093 182.645 64.8427 182.161 64.608C181.691 64.3587 181.149 64.234 180.533 64.234C179.77 64.234 179.169 64.388 178.729 64.696C178.303 65.004 178.091 65.4367 178.091 65.994C178.091 66.4633 178.223 66.8447 178.487 67.138C178.751 67.4167 179.095 67.6587 179.521 67.864C179.961 68.0547 180.437 68.238 180.951 68.414C181.479 68.59 181.999 68.788 182.513 69.008C183.041 69.228 183.517 69.514 183.943 69.866C184.383 70.2033 184.735 70.6433 184.999 71.186C185.263 71.7287 185.395 72.4107 185.395 73.232C185.395 74.6107 184.903 75.7033 183.921 76.51C182.953 77.3167 181.64 77.72 179.983 77.72ZM191.921 77.72C191.026 77.72 190.227 77.522 189.523 77.126C188.834 76.73 188.291 76.1873 187.895 75.498C187.514 74.794 187.323 73.9873 187.323 73.078V66.94H189.743V72.968C189.743 73.4813 189.824 73.9213 189.985 74.288C190.161 74.64 190.41 74.9113 190.733 75.102C191.07 75.2927 191.466 75.388 191.921 75.388C192.625 75.388 193.16 75.1827 193.527 74.772C193.908 74.3467 194.099 73.7453 194.099 72.968V66.94H196.519V73.078C196.519 74.002 196.321 74.816 195.925 75.52C195.544 76.2093 195.008 76.752 194.319 77.148C193.63 77.5293 192.83 77.72 191.921 77.72ZM203.814 77.72C202.773 77.72 201.827 77.478 200.976 76.994C200.14 76.51 199.48 75.85 198.996 75.014C198.512 74.178 198.27 73.2467 198.27 72.22C198.27 71.1787 198.512 70.2473 198.996 69.426C199.48 68.59 200.14 67.93 200.976 67.446C201.827 66.962 202.773 66.72 203.814 66.72C204.636 66.72 205.398 66.8813 206.102 67.204C206.821 67.512 207.43 67.9593 207.928 68.546L206.344 70.152C206.036 69.7853 205.662 69.514 205.222 69.338C204.797 69.1473 204.328 69.052 203.814 69.052C203.213 69.052 202.678 69.1913 202.208 69.47C201.754 69.734 201.394 70.1007 201.13 70.57C200.881 71.0393 200.756 71.5893 200.756 72.22C200.756 72.836 200.881 73.386 201.13 73.87C201.394 74.3393 201.754 74.7133 202.208 74.992C202.678 75.256 203.213 75.388 203.814 75.388C204.328 75.388 204.797 75.3 205.222 75.124C205.662 74.9333 206.036 74.6547 206.344 74.288L207.928 75.894C207.43 76.4807 206.821 76.9353 206.102 77.258C205.398 77.566 204.636 77.72 203.814 77.72ZM214.32 77.72C213.279 77.72 212.333 77.478 211.482 76.994C210.646 76.51 209.986 75.85 209.502 75.014C209.018 74.178 208.776 73.2467 208.776 72.22C208.776 71.1787 209.018 70.2473 209.502 69.426C209.986 68.59 210.646 67.93 211.482 67.446C212.333 66.962 213.279 66.72 214.32 66.72C215.142 66.72 215.904 66.8813 216.608 67.204C217.327 67.512 217.936 67.9593 218.434 68.546L216.85 70.152C216.542 69.7853 216.168 69.514 215.728 69.338C215.303 69.1473 214.834 69.052 214.32 69.052C213.719 69.052 213.184 69.1913 212.714 69.47C212.26 69.734 211.9 70.1007 211.636 70.57C211.387 71.0393 211.262 71.5893 211.262 72.22C211.262 72.836 211.387 73.386 211.636 73.87C211.9 74.3393 212.26 74.7133 212.714 74.992C213.184 75.256 213.719 75.388 214.32 75.388C214.834 75.388 215.303 75.3 215.728 75.124C216.168 74.9333 216.542 74.6547 216.85 74.288L218.434 75.894C217.936 76.4807 217.327 76.9353 216.608 77.258C215.904 77.566 215.142 77.72 214.32 77.72ZM224.87 77.72C223.814 77.72 222.861 77.4853 222.01 77.016C221.174 76.532 220.507 75.872 220.008 75.036C219.524 74.2 219.282 73.2613 219.282 72.22C219.282 71.1787 219.524 70.2473 220.008 69.426C220.492 68.59 221.145 67.93 221.966 67.446C222.802 66.962 223.726 66.72 224.738 66.72C225.721 66.72 226.586 66.9473 227.334 67.402C228.097 67.8567 228.691 68.48 229.116 69.272C229.556 70.064 229.776 70.966 229.776 71.978C229.776 72.154 229.761 72.3373 229.732 72.528C229.717 72.704 229.688 72.902 229.644 73.122H220.976V71.142H228.39L227.488 71.934C227.459 71.2887 227.334 70.746 227.114 70.306C226.894 69.866 226.579 69.5287 226.168 69.294C225.772 69.0593 225.281 68.942 224.694 68.942C224.078 68.942 223.543 69.074 223.088 69.338C222.633 69.602 222.281 69.976 222.032 70.46C221.783 70.9293 221.658 71.494 221.658 72.154C221.658 72.814 221.79 73.3933 222.054 73.892C222.318 74.3907 222.692 74.7793 223.176 75.058C223.66 75.322 224.217 75.454 224.848 75.454C225.391 75.454 225.889 75.3587 226.344 75.168C226.813 74.9773 227.209 74.6987 227.532 74.332L229.072 75.894C228.559 76.4953 227.935 76.95 227.202 77.258C226.469 77.566 225.691 77.72 224.87 77.72ZM235.17 77.72C234.583 77.72 234.019 77.6467 233.476 77.5C232.933 77.3387 232.435 77.1187 231.98 76.84C231.525 76.5467 231.129 76.1947 230.792 75.784L232.332 74.244C232.699 74.6693 233.117 74.992 233.586 75.212C234.07 75.4173 234.613 75.52 235.214 75.52C235.757 75.52 236.167 75.4393 236.446 75.278C236.725 75.1167 236.864 74.882 236.864 74.574C236.864 74.2513 236.732 74.002 236.468 73.826C236.204 73.65 235.859 73.5033 235.434 73.386C235.023 73.254 234.583 73.122 234.114 72.99C233.659 72.858 233.219 72.682 232.794 72.462C232.383 72.2273 232.046 71.912 231.782 71.516C231.518 71.12 231.386 70.6067 231.386 69.976C231.386 69.3013 231.54 68.722 231.848 68.238C232.171 67.754 232.618 67.38 233.19 67.116C233.777 66.852 234.473 66.72 235.28 66.72C236.131 66.72 236.879 66.874 237.524 67.182C238.184 67.4753 238.734 67.9227 239.174 68.524L237.634 70.064C237.326 69.6827 236.974 69.3967 236.578 69.206C236.182 69.0153 235.727 68.92 235.214 68.92C234.73 68.92 234.356 68.9933 234.092 69.14C233.828 69.2867 233.696 69.4993 233.696 69.778C233.696 70.0713 233.828 70.2987 234.092 70.46C234.356 70.6213 234.693 70.7607 235.104 70.878C235.529 70.9953 235.969 71.1273 236.424 71.274C236.893 71.406 237.333 71.5967 237.744 71.846C238.169 72.0807 238.514 72.4033 238.778 72.814C239.042 73.21 239.174 73.7307 239.174 74.376C239.174 75.4027 238.815 76.2167 238.096 76.818C237.377 77.4193 236.402 77.72 235.17 77.72ZM244.623 77.72C244.036 77.72 243.472 77.6467 242.929 77.5C242.386 77.3387 241.888 77.1187 241.433 76.84C240.978 76.5467 240.582 76.1947 240.245 75.784L241.785 74.244C242.152 74.6693 242.57 74.992 243.039 75.212C243.523 75.4173 244.066 75.52 244.667 75.52C245.21 75.52 245.62 75.4393 245.899 75.278C246.178 75.1167 246.317 74.882 246.317 74.574C246.317 74.2513 246.185 74.002 245.921 73.826C245.657 73.65 245.312 73.5033 244.887 73.386C244.476 73.254 244.036 73.122 243.567 72.99C243.112 72.858 242.672 72.682 242.247 72.462C241.836 72.2273 241.499 71.912 241.235 71.516C240.971 71.12 240.839 70.6067 240.839 69.976C240.839 69.3013 240.993 68.722 241.301 68.238C241.624 67.754 242.071 67.38 242.643 67.116C243.23 66.852 243.926 66.72 244.733 66.72C245.584 66.72 246.332 66.874 246.977 67.182C247.637 67.4753 248.187 67.9227 248.627 68.524L247.087 70.064C246.779 69.6827 246.427 69.3967 246.031 69.206C245.635 69.0153 245.18 68.92 244.667 68.92C244.183 68.92 243.809 68.9933 243.545 69.14C243.281 69.2867 243.149 69.4993 243.149 69.778C243.149 70.0713 243.281 70.2987 243.545 70.46C243.809 70.6213 244.146 70.7607 244.557 70.878C244.982 70.9953 245.422 71.1273 245.877 71.274C246.346 71.406 246.786 71.5967 247.197 71.846C247.622 72.0807 247.967 72.4033 248.231 72.814C248.495 73.21 248.627 73.7307 248.627 74.376C248.627 75.4027 248.268 76.2167 247.549 76.818C246.83 77.4193 245.855 77.72 244.623 77.72Z" fill="white"/>
</svg>
