<svg width="60" height="43" viewBox="0 0 60 43" fill="none" xmlns="http://www.w3.org/2000/svg">
<path d="M55.147 37.1541C57.0033 37.1541 58.3568 35.2587 57.916 33.2997C56.3248 26.2416 50.4562 21.0002 43.4613 21.0002C36.4665 21.0002 30.5944 26.2415 29.0066 33.3035C28.5658 35.2624 29.9193 37.1541 31.7757 37.1541H55.147Z" fill="#1F2732" stroke="#D1B06B" stroke-width="3" stroke-miterlimit="10"/>
<path d="M28.2241 37.1541C30.0805 37.1541 31.434 35.2587 30.9931 33.2997C29.402 26.2416 23.5333 21.0002 16.5385 21.0002C9.5436 21.0002 3.6715 26.2415 2.0838 33.3035C1.64296 35.2624 2.99647 37.1541 4.85281 37.1541H28.2241Z" fill="#1F2732" stroke="#D1B06B" stroke-width="3" stroke-miterlimit="10"/>
<path d="M38.6557 41.4616C40.0308 41.4616 41.0334 40.0717 40.7069 38.6351C39.5282 33.4591 35.1811 29.6155 29.9997 29.6155C24.8183 29.6155 20.4686 33.4591 19.2925 38.6379C18.966 40.0744 19.9686 41.4616 21.3437 41.4616H38.6557Z" fill="#1F2732" stroke="#D1B06B" stroke-width="3" stroke-miterlimit="10"/>
<path d="M50.0384 9.15396C50.0384 13.0837 46.8527 16.2693 42.923 16.2693C38.9933 16.2693 35.8076 13.0837 35.8076 9.15396C35.8076 5.22424 38.9933 2.03857 42.923 2.03857C46.8527 2.03857 50.0384 5.22424 50.0384 9.15396Z" stroke="#D1B06B" stroke-width="3" stroke-miterlimit="10"/>
<path d="M24.1927 9.15396C24.1927 13.0837 21.007 16.2693 17.0773 16.2693C13.1476 16.2693 9.96191 13.0837 9.96191 9.15396C9.96191 5.22424 13.1476 2.03857 17.0773 2.03857C21.007 2.03857 24.1927 5.22424 24.1927 9.15396Z" stroke="#D1B06B" stroke-width="3" stroke-miterlimit="10"/>
<path d="M34.9612 21.0001C34.9612 23.7403 32.7398 25.9617 29.9996 25.9617C27.2594 25.9617 25.0381 23.7403 25.0381 21.0001C25.0381 18.2599 27.2594 16.0386 29.9996 16.0386C32.7398 16.0386 34.9612 18.2599 34.9612 21.0001Z" stroke="#D1B06B" stroke-width="3" stroke-miterlimit="10"/>
</svg>
