<svg width="64" height="55" viewBox="0 0 64 55" fill="none" xmlns="http://www.w3.org/2000/svg">
<path d="M1.5 5C1.5 3.067 3.067 1.5 5 1.5H27.8358C29.7688 1.5 31.3358 3.067 31.3358 5V53.5H5C3.067 53.5 1.5 51.933 1.5 50V5Z" stroke="#BB9F64" stroke-width="3"/>
<path d="M31.873 27.9849C31.873 26.0519 33.44 24.4849 35.373 24.4849H58.2089C60.1419 24.4849 61.7089 26.0519 61.7089 27.9849V49.9998C61.7089 51.9328 60.1419 53.4998 58.2089 53.4998H31.873V27.9849Z" stroke="#BB9F64" stroke-width="3"/>
<path d="M6.56738 10.8506C6.56738 10.2983 7.0151 9.85059 7.56738 9.85059H12.9554C13.5077 9.85059 13.9554 10.2983 13.9554 10.8506V12.9551C13.9554 13.5073 13.5077 13.9551 12.9554 13.9551H7.56738C7.0151 13.9551 6.56738 13.5073 6.56738 12.9551V10.8506Z" fill="#BB9F64"/>
<path d="M36.9405 32.1939C36.9405 31.6416 37.3882 31.1939 37.9405 31.1939H43.3286C43.8809 31.1939 44.3286 31.6416 44.3286 32.1939V34.2983C44.3286 34.8506 43.8809 35.2983 43.3286 35.2983H37.9405C37.3882 35.2983 36.9405 34.8506 36.9405 34.2983V32.1939Z" fill="#BB9F64"/>
<path d="M6.56738 21.5222C6.56738 20.9699 7.0151 20.5222 7.56738 20.5222H12.9554C13.5077 20.5222 13.9554 20.9699 13.9554 21.5222V23.6267C13.9554 24.179 13.5077 24.6267 12.9554 24.6267H7.56738C7.0151 24.6267 6.56738 24.179 6.56738 23.6267V21.5222Z" fill="#BB9F64"/>
<path d="M36.9405 42.0446C36.9405 41.4923 37.3882 41.0446 37.9405 41.0446H43.3286C43.8809 41.0446 44.3286 41.4923 44.3286 42.0446V44.1491C44.3286 44.7014 43.8809 45.1491 43.3286 45.1491H37.9405C37.3882 45.1491 36.9405 44.7014 36.9405 44.1491V42.0446Z" fill="#BB9F64"/>
<path d="M6.56738 32.1939C6.56738 31.6416 7.0151 31.1939 7.56738 31.1939H12.9554C13.5077 31.1939 13.9554 31.6416 13.9554 32.1939V34.2983C13.9554 34.8506 13.5077 35.2983 12.9554 35.2983H7.56738C7.0151 35.2983 6.56738 34.8506 6.56738 34.2983V32.1939Z" fill="#BB9F64"/>
<path d="M6.56738 42.8655C6.56738 42.3132 7.0151 41.8655 7.56738 41.8655H12.9554C13.5077 41.8655 13.9554 42.3132 13.9554 42.8655V44.97C13.9554 45.5223 13.5077 45.97 12.9554 45.97H7.56738C7.0151 45.97 6.56738 45.5223 6.56738 44.97V42.8655Z" fill="#BB9F64"/>
<path d="M18.8808 10.8506C18.8808 10.2983 19.3285 9.85059 19.8808 9.85059H25.2689C25.8212 9.85059 26.2689 10.2983 26.2689 10.8506V12.9551C26.2689 13.5073 25.8212 13.9551 25.2689 13.9551H19.8808C19.3285 13.9551 18.8808 13.5073 18.8808 12.9551V10.8506Z" fill="#BB9F64"/>
<path d="M49.2539 32.1939C49.2539 31.6416 49.7017 31.1939 50.2539 31.1939H55.642C56.1943 31.1939 56.642 31.6416 56.642 32.1939V34.2983C56.642 34.8506 56.1943 35.2983 55.642 35.2983H50.2539C49.7017 35.2983 49.2539 34.8506 49.2539 34.2983V32.1939Z" fill="#BB9F64"/>
<path d="M18.8808 21.5222C18.8808 20.9699 19.3285 20.5222 19.8808 20.5222H25.2689C25.8212 20.5222 26.2689 20.9699 26.2689 21.5222V23.6267C26.2689 24.179 25.8212 24.6267 25.2689 24.6267H19.8808C19.3285 24.6267 18.8808 24.179 18.8808 23.6267V21.5222Z" fill="#BB9F64"/>
<path d="M49.2539 42.0446C49.2539 41.4923 49.7017 41.0446 50.2539 41.0446H55.642C56.1943 41.0446 56.642 41.4923 56.642 42.0446V44.1491C56.642 44.7014 56.1943 45.1491 55.642 45.1491H50.2539C49.7017 45.1491 49.2539 44.7014 49.2539 44.1491V42.0446Z" fill="#BB9F64"/>
<path d="M18.8808 32.1939C18.8808 31.6416 19.3285 31.1939 19.8808 31.1939H25.2689C25.8212 31.1939 26.2689 31.6416 26.2689 32.1939V34.2983C26.2689 34.8506 25.8212 35.2983 25.2689 35.2983H19.8808C19.3285 35.2983 18.8808 34.8506 18.8808 34.2983V32.1939Z" fill="#BB9F64"/>
<path d="M18.8808 42.8655C18.8808 42.3132 19.3285 41.8655 19.8808 41.8655H25.2689C25.8212 41.8655 26.2689 42.3132 26.2689 42.8655V44.97C26.2689 45.5223 25.8212 45.97 25.2689 45.97H19.8808C19.3285 45.97 18.8808 45.5223 18.8808 44.97V42.8655Z" fill="#BB9F64"/>
</svg>
